<svg id="treatment" enable-background="new 0 0 300 300" height="512" viewBox="0 0 300 300" width="512" xmlns="http://www.w3.org/2000/svg"><g><circle cx="172.828" cy="128" fill="#f9d7f7" r="86"/><g><path d="m137.094 270h-8.532c-27.467 0-49.734-22.267-49.734-49.734v-147.581c0-23.574 19.111-42.685 42.685-42.685h22.63c23.574 0 42.685 19.111 42.685 42.685v147.581c0 27.467-22.266 49.734-49.734 49.734z" fill="#fff"/><path d="m137.094 274h-8.531c-29.629 0-53.734-24.105-53.734-53.734v-147.582c-.001-25.743 20.941-46.684 46.683-46.684h22.633c25.742 0 46.684 20.941 46.684 46.684v147.582c-.001 29.629-24.106 53.734-53.735 53.734zm-15.582-240c-21.332 0-38.684 17.352-38.684 38.684v147.582c0 25.219 20.516 45.734 45.734 45.734h8.531c25.219 0 45.734-20.516 45.734-45.734v-147.582c0-21.332-17.352-38.684-38.684-38.684z" fill="#4c241d"/></g><g><path d="m174.828 86c-.161 0-.311.04-.47.047-2.898-20.368-9.432-44.047-41.432-44.047s-38.73 23.679-41.628 44.047c-.159-.007-.309-.047-.47-.047-5.523 0-10 4.477-10 10 0 5.522 4.477 10 10 10 .034 0 .066-.01.1-.01 1.046 22.265 19.375 40.01 41.9 40.01s40.854-17.745 41.9-40.01c.034 0 .066.01.1.01 5.523 0 10-4.478 10-10 0-5.523-4.477-10-10-10z" fill="#ffded5"/><path d="m132.828 150c-23.457 0-42.883-17.523-45.617-40.473-5.973-1.602-10.383-7.059-10.383-13.527 0-6.68 4.703-12.281 10.969-13.668 2.367-15.437 8.941-44.332 45.129-44.332 36.004 0 42.57 28.895 44.934 44.332 6.266 1.387 10.969 6.988 10.969 13.668 0 6.469-4.41 11.926-10.383 13.527-2.735 22.95-22.161 40.473-45.618 40.473zm-41.898-48.008c2.137 0 3.895 1.68 3.996 3.812.949 20.298 17.597 36.196 37.902 36.196s36.953-15.898 37.902-36.195c.102-2.133 1.859-3.812 3.996-3.812.066 0 .145.004.223.008 3.254-.066 5.879-2.73 5.879-6 0-3.258-2.609-5.918-5.852-6-.289.035-.473.047-.621.047-1.977 0-3.676-1.457-3.957-3.438-3.468-24.376-11.168-40.61-37.472-40.61-28.027 0-34.668 19.52-37.668 40.609-.289 2.051-2.184 3.551-4.16 3.434-.121-.008-.441-.039-.562-.059-3.016.016-5.708 2.707-5.708 6.016 0 3.27 2.629 5.934 5.883 6 .074-.004.152-.008.219-.008z" fill="#4c241d"/></g><g fill="#4c241d"><path d="m154.828 250h-36c-2.211 0-4-1.789-4-4s1.789-4 4-4h36c2.211 0 4 1.789 4 4s-1.789 4-4 4z"/><circle cx="254.828" cy="250" r="4"/><circle cx="206.828" cy="206" r="4"/><path d="m118.828 234h-28c-2.211 0-4-1.789-4-4s1.789-4 4-4h28c2.211 0 4 1.789 4 4s-1.789 4-4 4z"/><path d="m142.828 234h-12c-2.211 0-4-1.789-4-4s1.789-4 4-4h12c2.211 0 4 1.789 4 4s-1.789 4-4 4z"/><path d="m248.828 202c-7.719 0-14-6.281-14-14s6.281-14 14-14 14 6.281 14 14-6.281 14-14 14zm0-20c-3.309 0-6 2.691-6 6s2.691 6 6 6 6-2.691 6-6-2.691-6-6-6z"/><path d="m52.484 235.656c-1.023 0-2.047-.391-2.828-1.172l-11.312-11.312c-1.562-1.562-1.562-4.094 0-5.656s4.094-1.562 5.656 0l11.312 11.312c1.562 1.562 1.562 4.094 0 5.656-.781.782-1.804 1.172-2.828 1.172z"/><path d="m41.172 235.656c-1.023 0-2.047-.391-2.828-1.172-1.562-1.562-1.562-4.094 0-5.656l11.312-11.312c1.562-1.562 4.094-1.562 5.656 0s1.562 4.094 0 5.656l-11.312 11.312c-.781.782-1.805 1.172-2.828 1.172z"/></g><ellipse cx="152.828" cy="104" fill="#f4aeab" rx="10" ry="6"/><ellipse cx="112.828" cy="104" fill="#f4aeab" rx="10" ry="6"/><path d="m113.32 93.844c-.285 0-.578-.012-.867-.039-2.98-.266-5.723-1.91-7.527-4.512-1.262-1.816-.809-4.309 1.004-5.566 1.816-1.266 4.309-.809 5.566 1.004.266.383.832 1.031 1.664 1.105.871.059 1.672-.445 2.305-1.367 1.258-1.812 3.738-2.277 5.566-1.027 1.816 1.254 2.277 3.746 1.027 5.566-2.117 3.07-5.331 4.836-8.738 4.836z" fill="#4c241d"/><path d="m152.309 93.844c-.285 0-.578-.012-.867-.039-2.977-.266-5.719-1.91-7.527-4.508-1.266-1.812-.816-4.305.996-5.566 1.809-1.262 4.305-.816 5.566.996.328.469.883 1.039 1.672 1.109.898.059 1.668-.445 2.305-1.367 1.258-1.812 3.738-2.277 5.566-1.027 1.816 1.254 2.277 3.746 1.027 5.566-2.117 3.07-5.332 4.836-8.738 4.836z" fill="#4c241d"/><g><path d="m146.828 146h-28c-15.464 0-28 12.536-28 28h84c0-15.464-12.536-28-28-28z" fill="#ffded5"/><path d="m174.828 178h-84c-2.211 0-4-1.789-4-4 0-17.645 14.355-32 32-32h28c17.645 0 32 14.355 32 32 0 2.211-1.789 4-4 4zm-79.668-8h75.336c-1.91-11.336-11.797-20-23.668-20h-28c-11.871 0-21.758 8.664-23.668 20z" fill="#4c241d"/></g><path d="m114.828 178c-2.211 0-4-1.789-4-4v-8c0-2.211 1.789-4 4-4s4 1.789 4 4v8c0 2.211-1.789 4-4 4z" fill="#4c241d"/><path d="m78.828 170h108v8h-108z" fill="#4c241d"/><g><path d="m254.828 114h-16v-16h-16v16h-16v16h16v16h16v-16h16z" fill="#e66353"/><path d="m238.828 150h-16c-2.211 0-4-1.789-4-4v-12h-12c-2.211 0-4-1.789-4-4v-16c0-2.211 1.789-4 4-4h12v-12c0-2.211 1.789-4 4-4h16c2.211 0 4 1.789 4 4v12h12c2.211 0 4 1.789 4 4v16c0 2.211-1.789 4-4 4h-12v12c0 2.211-1.789 4-4 4zm-12-8h8v-12c0-2.211 1.789-4 4-4h12v-8h-12c-2.211 0-4-1.789-4-4v-12h-8v12c0 2.211-1.789 4-4 4h-12v8h12c2.211 0 4 1.789 4 4z" fill="#4c241d"/></g><g><circle cx="154.828" cy="174" fill="#e2e2e2" r="20"/><path d="m154.828 198c-13.234 0-24-10.766-24-24s10.766-24 24-24 24 10.766 24 24-10.766 24-24 24zm0-40c-8.824 0-16 7.176-16 16s7.176 16 16 16 16-7.176 16-16-7.176-16-16-16z" fill="#4c241d"/></g><g><circle cx="154.828" cy="174" fill="#b5a19c" r="8"/><path d="m154.828 186c-6.617 0-12-5.383-12-12s5.383-12 12-12 12 5.383 12 12-5.383 12-12 12zm0-16c-2.207 0-4 1.793-4 4s1.793 4 4 4 4-1.793 4-4-1.793-4-4-4z" fill="#4c241d"/></g><path d="m142.828 218h-28c-8.824 0-16-7.176-16-16 0-4.41-3.59-8-8-8h-36c-8.824 0-16-7.176-16-16v-28c0-2.211 1.789-4 4-4s4 1.789 4 4v28c0 4.41 3.59 8 8 8h36c8.824 0 16 7.176 16 16 0 4.41 3.59 8 8 8h28c4.41 0 8-3.59 8-8v-8c0-2.211 1.789-4 4-4s4 1.789 4 4v8c0 8.824-7.176 16-16 16z" fill="#4c241d"/></g></svg>