<svg id="dizzy" enable-background="new 0 0 300 300" height="512" viewBox="0 0 300 300" width="512" xmlns="http://www.w3.org/2000/svg"><g><circle cx="136" cy="126.922" fill="#f9d7f7" r="90"/><circle cx="78" cy="224.922" fill="#4c241d" r="4"/><path d="m224 224.922c-7.719 0-14-6.281-14-14s6.281-14 14-14 14 6.281 14 14-6.281 14-14 14zm0-20c-3.309 0-6 2.691-6 6s2.691 6 6 6 6-2.691 6-6-2.691-6-6-6z" fill="#4c241d"/><g><path d="m78 268.922 4-20 40-12v-20h32v20l40 12 4 20" fill="#a9ba5a"/><path d="m197.996 272.922c-1.867 0-3.539-1.314-3.918-3.215l-3.527-17.645-37.699-11.309c-1.691-.508-2.852-2.066-2.852-3.832v-16h-24v16c0 1.766-1.16 3.324-2.852 3.832l-37.699 11.309-3.527 17.645c-.434 2.166-2.543 3.559-4.707 3.137-2.164-.434-3.57-2.541-3.137-4.707l4-20c.289-1.449 1.355-2.621 2.773-3.047l37.149-11.144v-17.023c0-2.209 1.789-4 4-4h32c2.211 0 4 1.791 4 4v17.023l37.148 11.145c1.418.426 2.484 1.598 2.773 3.047l4 20c.434 2.166-.973 4.273-3.137 4.707-.264.052-.53.077-.788.077z" fill="#4c241d"/></g><g><path d="m138 256.922c13.821 0 25.561-6.584 30.037-15.789l-14.037-4.211v-20h-32v20l-14.037 4.211c4.476 9.205 16.216 15.789 30.037 15.789z" fill="#ffded5"/><path d="m138 260.922c-15.105 0-28.309-7.08-33.637-18.039-.512-1.055-.535-2.283-.066-3.357.473-1.074 1.391-1.887 2.516-2.225l11.187-3.355v-17.023c0-2.209 1.789-4 4-4h32c2.211 0 4 1.791 4 4v17.023l11.188 3.355c1.125.338 2.043 1.15 2.516 2.225.469 1.074.445 2.303-.066 3.357-5.329 10.959-18.533 18.039-33.638 18.039zm-23.75-17.5c5.051 5.816 13.977 9.5 23.75 9.5s18.699-3.684 23.75-9.5l-8.898-2.668c-1.691-.508-2.852-2.066-2.852-3.832v-16h-24v16c0 1.766-1.16 3.324-2.852 3.832z" fill="#4c241d"/></g><g><path d="m182 175.59v-24.168c6.674 0 12.084 5.41 12.084 12.084s-5.41 12.084-12.084 12.084z" fill="#ffded5"/><path d="m182 179.59c-2.211 0-4-1.791-4-4v-24.168c0-2.209 1.789-4 4-4 8.867 0 16.082 7.215 16.082 16.084s-7.215 16.084-16.082 16.084zm4-23.107v14.047c2.438-1.395 4.082-4.02 4.082-7.023s-1.644-5.63-4.082-7.024z" fill="#4c241d"/></g><g><path d="m94 151.422v24.168c-6.674 0-12.084-5.41-12.084-12.084s5.41-12.084 12.084-12.084z" fill="#ffded5"/><path d="m94 179.59c-8.867 0-16.082-7.215-16.082-16.084s7.215-16.084 16.082-16.084c2.211 0 4 1.791 4 4v24.168c0 2.209-1.789 4-4 4zm-4-23.107c-2.438 1.395-4.082 4.02-4.082 7.023s1.645 5.629 4.082 7.023z" fill="#4c241d"/></g><g><path d="m165.005 213.597-.752.432c-15.696 9.003-34.819 9.199-50.689.519l-1.98-1.083c-10.828-5.921-17.584-17.432-17.584-29.957v-61.781l29.333-22.305 58.667 22.305v62.242c0 12.281-6.497 23.607-16.995 29.628z" fill="#ffded5"/><path d="m138.449 224.961c-9.191 0-18.383-2.299-26.805-6.904l-1.98-1.082c-12.129-6.637-19.664-19.459-19.664-33.467v-61.781c0-1.25.586-2.428 1.578-3.184l29.332-22.305c1.102-.838 2.555-1.045 3.844-.555l58.668 22.305c1.551.59 2.578 2.078 2.578 3.738v62.242c0 13.689-7.281 26.369-19 33.096l-.75.432c-8.676 4.973-18.234 7.465-27.801 7.465zm-40.449-101.25v59.797c0 11.082 5.941 21.217 15.5 26.447l1.98 1.082c14.73 8.055 32.223 7.879 46.785-.479l.742-.428c.004 0 .004-.002.004-.002 9.246-5.305 14.988-15.328 14.988-26.16v-59.484l-54.016-20.535z" fill="#4c241d"/></g><path d="m144.305 197.18c-1.164 0-2.316-.504-3.105-1.475-.934-1.146-2.383-1.758-3.844-1.627-1.184.104-2.254.664-3.016 1.574-1.41 1.689-3.941 1.92-5.633.498-1.695-1.418-1.918-3.939-.5-5.635 2.133-2.549 5.133-4.113 8.441-4.406 4.082-.359 8.141 1.332 10.754 4.545 1.395 1.713 1.137 4.232-.574 5.627-.742.606-1.637.899-2.523.899z" fill="#f53e28"/><g><path d="m154 96.922h-32v-21.021c0-6.063 4.915-10.979 10.979-10.979h10.043c6.063 0 10.979 4.915 10.979 10.979v21.021z" fill="#ffce56"/><path d="m154 100.922h-32c-2.211 0-4-1.791-4-4v-21.021c0-8.26 6.719-14.979 14.977-14.979h10.047c8.258 0 14.977 6.719 14.977 14.979v21.021c-.001 2.209-1.79 4-4.001 4zm-28-8h24v-17.021c0-3.848-3.129-6.979-6.977-6.979h-10.047c-3.848 0-6.977 3.131-6.977 6.979v17.021z" fill="#4c241d"/></g><path d="m113.75 170.18c-.367 0-.734-.016-1.105-.049-3.309-.295-6.305-1.861-8.438-4.406-1.418-1.695-1.195-4.217.5-5.635 1.695-1.42 4.223-1.191 5.633.498.762.91 1.832 1.469 3.016 1.574 1.461.113 2.906-.477 3.844-1.627 1.391-1.711 3.91-1.975 5.625-.58s1.973 3.914.578 5.627c-2.38 2.926-5.926 4.598-9.653 4.598z" fill="#4c241d"/><path d="m161.75 170.18c-.367 0-.734-.016-1.105-.049-3.309-.295-6.305-1.861-8.438-4.406-1.418-1.695-1.195-4.217.5-5.635 1.691-1.42 4.223-1.191 5.633.498.762.91 1.832 1.469 3.016 1.574 1.457.113 2.906-.477 3.844-1.627 1.391-1.711 3.91-1.975 5.625-.58s1.973 3.914.578 5.627c-2.38 2.926-5.926 4.598-9.653 4.598z" fill="#4c241d"/><g><path d="m182 138.635v-18.323c0-21.754-17.994-39.39-40.19-39.39h-7.62c-21.288 0-38.664 16.234-40.054 36.753-.067.026-.136.052-.136.052v2.585 16.61 1.713c0-.589.038-1.146.059-1.718 1.023-.089 32.449-2.924 48.222-16.885 26.446 18.532 39.719 18.603 39.719 18.603z" fill="#ffce56"/><path d="m94 142.635c-2.211 0-4-1.791-4-4v-20.908c0-.459.078-.906.227-1.324 2.031-22.219 21.148-39.48 43.965-39.48h7.617c24.367 0 44.191 19.465 44.191 43.391v18.322c0 1.064-.426 2.086-1.18 2.836-.75.746-1.762 1.164-2.82 1.164-.008 0-.016 0-.02 0-.578-.004-13.965-.277-39.496-17.605-14.215 10.775-36.738 14.49-44.977 15.529-.679 1.237-1.995 2.075-3.507 2.075zm48.281-26.603c.801 0 1.602.238 2.297.725 16.684 11.691 27.875 15.744 33.422 17.145v-13.588c0-19.514-16.234-35.391-36.191-35.391h-7.617c-18.969 0-34.809 14.506-36.062 33.021-.02.264-.062.52-.129.768v13.701c9.039-1.273 30.16-5.225 41.629-15.377.753-.666 1.702-1.004 2.651-1.004z" fill="#4c241d"/></g><g fill="#4c241d"><path d="m142.285 124.032c-1.164 0-2.316-.504-3.109-1.477l-12.281-15.109c-1.391-1.715-1.133-4.234.582-5.627 1.719-1.395 4.234-1.131 5.629.58l12.281 15.109c1.391 1.715 1.133 4.234-.582 5.627-.743.604-1.633.897-2.52.897z"/><path d="m218.504 166.084c-6.727 0-15.398-1.324-25.988-3.975-2.141-.537-3.445-2.709-2.906-4.852.535-2.15 2.703-3.443 4.852-2.91 24.73 6.188 32.371 3.178 33.094 1.633 1.418-3.016-7.742-16.975-44.195-38.795-1.895-1.135-2.512-3.59-1.379-5.486 1.137-1.895 3.59-2.508 5.488-1.377 20.516 12.279 53.945 34.982 47.328 49.062-2.103 4.466-7.556 6.7-16.294 6.7z"/><path d="m87.598 116.475c-.703 0-1.418-.186-2.062-.576-20.066-12.107-52.754-34.496-46.223-48.4 6.422-13.662 43.578-3.268 65.156 4.15 2.09.719 3.199 2.994 2.48 5.084-.719 2.086-2.992 3.203-5.082 2.482-38.152-13.115-53.957-11.199-55.312-8.314-1.391 2.961 7.531 16.68 43.113 38.15 1.891 1.141 2.5 3.6 1.359 5.49-.754 1.247-2.074 1.934-3.429 1.934z"/><path d="m55.691 166.139c-8.18 0-14.125-1.961-16.379-6.754-7.25-15.422 34.113-41.467 52.23-51.949 1.918-1.104 4.363-.453 5.465 1.459 1.109 1.914.453 4.359-1.457 5.467-40.332 23.33-50.535 38.352-48.996 41.621 2.645 5.639 39.758 1.617 98.316-25.91 24.895-11.701 47.281-24.762 63.043-36.777 18.219-13.889 20.355-20.875 19.641-22.395-1.375-2.92-17.387-4.816-56.062 8.572-2.094.719-4.367-.383-5.09-2.471s.383-4.365 2.473-5.088c21.84-7.562 59.441-18.189 65.922-4.418 3.578 7.613-3.629 18.133-22.031 32.162-16.199 12.348-39.102 25.719-64.488 37.652-25.227 11.86-68.54 28.827-92.587 28.829z"/></g><g><path d="m242.379 41.201 5.621-10.279 5.621 10.279 10.279 5.621-10.279 5.621-5.621 10.278-5.621-10.278-10.278-5.621z" fill="#ffce56"/><path d="m248 66.721c-1.461 0-2.809-.797-3.508-2.08l-5.059-9.25-9.25-5.059c-1.285-.701-2.082-2.047-2.082-3.51 0-1.461.797-2.807 2.078-3.51l9.25-5.061 5.062-9.25c1.398-2.566 5.617-2.566 7.016 0l5.062 9.25 9.25 5.061c1.281.703 2.078 2.049 2.078 3.51 0 1.463-.797 2.809-2.082 3.51l-9.25 5.059-5.059 9.25c-.697 1.283-2.045 2.08-3.506 2.08zm-7.562-19.898 3.859 2.111c.672.367 1.223.92 1.59 1.59l2.113 3.861 2.113-3.861c.367-.67.918-1.223 1.59-1.59l3.859-2.111-3.863-2.113c-.668-.367-1.219-.92-1.586-1.59l-2.113-3.862-2.113 3.861c-.367.67-.918 1.223-1.586 1.59zm1.941-5.623h.039z" fill="#4c241d"/></g><g><path d="m46.379 197.201 5.621-10.279 5.621 10.279 10.278 5.621-10.278 5.621-5.621 10.278-5.621-10.278-10.278-5.621z" fill="#ffce56"/><path d="m52 222.721c-1.461 0-2.809-.797-3.508-2.08l-5.059-9.25-9.25-5.059c-1.285-.701-2.082-2.047-2.082-3.51 0-1.461.797-2.807 2.078-3.51l9.25-5.061 5.062-9.25c1.398-2.566 5.617-2.566 7.016 0l5.062 9.25 9.25 5.061c1.281.703 2.078 2.049 2.078 3.51 0 1.463-.797 2.809-2.082 3.51l-9.25 5.059-5.059 9.25c-.697 1.283-2.045 2.08-3.506 2.08zm-7.562-19.898 3.859 2.111c.672.367 1.223.92 1.59 1.59l2.113 3.861 2.113-3.861c.367-.67.918-1.223 1.59-1.59l3.859-2.111-3.863-2.113c-.668-.367-1.219-.92-1.586-1.59l-2.113-3.862-2.113 3.861c-.367.67-.918 1.223-1.586 1.59zm1.941-5.623h.039z" fill="#4c241d"/></g></g></svg>