<svg id="heart" enable-background="new 0 0 300 300" height="512" viewBox="0 0 300 300" width="512" xmlns="http://www.w3.org/2000/svg"><g><path d="m248.475 252c-7.719 0-14-6.281-14-14s6.281-14 14-14 14 6.281 14 14-6.282 14-14 14zm0-20c-3.309 0-6 2.691-6 6s2.691 6 6 6 6-2.691 6-6-2.692-6-6-6z" fill="#4c241d"/><circle cx="120.475" cy="122" fill="#f9d7f7" r="86"/><g fill="#4c241d"><circle cx="178.475" cy="60" r="4"/><circle cx="114.475" cy="40" r="4"/><path d="m51.201 71.793c-1.023 0-2.047-.391-2.828-1.172-1.562-1.561-1.562-4.094 0-5.656l11.789-11.793c1.562-1.562 4.094-1.562 5.656 0 1.562 1.561 1.562 4.094 0 5.656l-11.789 11.793c-.781.781-1.804 1.172-2.828 1.172z"/><path d="m62.99 71.793c-1.023 0-2.047-.391-2.828-1.172l-11.789-11.793c-1.562-1.562-1.562-4.096 0-5.656 1.562-1.562 4.094-1.562 5.656 0l11.789 11.793c1.562 1.562 1.562 4.096 0 5.656-.781.781-1.804 1.172-2.828 1.172z"/></g><g><g><path d="m154.475 260s107.05-64 107.05-128.726c0-30.528-26.627-55.274-59.473-55.274-18.691 0-35.228 8.122-46.119 20.664-.784.903-2.132.903-2.916 0-10.891-12.542-27.429-20.664-46.121-20.664-32.845 0-59.472 24.746-59.472 55.274.001 68.726 107.051 128.726 107.051 128.726z" fill="#f4aeab"/><path d="m154.475 264c-.672 0-1.348-.17-1.957-.51-1.105-.621-27.441-15.48-54.215-39.08-36.414-32.1-54.879-63.436-54.879-93.137 0-32.683 28.472-59.273 63.472-59.273 18.266 0 35.469 7.373 47.578 20.309 12.106-12.936 29.313-20.309 47.579-20.309 35 0 63.473 26.59 63.473 59.273 0 28.025-18.453 58.848-54.848 91.609-26.746 24.072-53.879 40.389-54.152 40.551-.63.378-1.34.567-2.051.567zm-47.579-184c-30.586 0-55.473 23.002-55.473 51.273 0 60.518 88.406 115.422 102.988 124.062 14.508-9.113 103.113-67.121 103.113-124.062 0-28.271-24.887-51.273-55.473-51.273-16.746 0-32.457 7.029-43.102 19.287-2.273 2.613-6.684 2.611-8.949.002-10.646-12.26-26.357-19.289-43.104-19.289z" fill="#4c241d"/></g></g><path d="m118.024 173.97s-8.77 27.737 5.241 41.32 50.661 3.814 68.843-10.269c27.694-21.45 22.353-41.749 22.353-41.749s-31.328-15.596-45.456-12.139c-14.129 3.457-33.593 15.706-33.593 15.706s1.503-18.337-8.041-14.504-18.432 6.095-18.432 6.095-11.727-13.475-16.112 2.465 4.845 23.944 13.795 23.361 13.534-.207 13.534-.207" fill="#ffded5"/><g fill="#4c241d"><path d="m143.615 225.836c-9.23 0-17.52-2.232-23.133-7.674-15.605-15.131-6.66-44.168-6.27-45.396.664-2.105 2.898-3.275 5.016-2.607 2.105.662 3.273 2.908 2.613 5.014-.082.256-7.844 25.562 4.211 37.248 11.434 11.082 45.527 3.443 63.609-10.561 24.992-19.359 21.102-36.871 20.922-37.605-.516-2.133.777-4.303 2.906-4.84 2.133-.541 4.285.723 4.84 2.842.246.934 5.676 23.121-23.77 45.928-12.256 9.493-33.307 17.649-50.944 17.651z"/><path d="m173.244 191.451c-10.656 0-24.355-1.348-31.367-7.498-3.113-2.732-4.793-6.287-4.855-10.277-.32-20.666 28.594-28.115 29.824-28.422 2.141-.545 4.312.77 4.852 2.912.531 2.145-.77 4.314-2.914 4.85-6.672 1.664-23.949 8.598-23.762 20.535.027 1.74.703 3.135 2.129 4.387 7.727 6.779 31.211 5.756 39.617 4.785 2.148-.236 4.18 1.322 4.43 3.516.254 2.195-1.32 4.178-3.512 4.432-1.395.161-7.219.78-14.442.78z"/><path d="m107.318 188.182c-5.875 0-13.578-1.031-17.992-5.76-2.199-2.354-4.48-6.613-2.863-13.533 2.867-12.262 6.105-17.873 11.184-19.363 5.336-1.578 10.332 2.398 14.078 6.035 1.586 1.537 1.625 4.07.086 5.656-1.543 1.586-4.07 1.623-5.656.086-4.637-4.496-6.191-4.117-6.254-4.102-.445.131-2.816 1.398-5.648 13.508-.984 4.209.449 5.744.918 6.248 3.383 3.633 13.242 3.615 18.68 2.74 2.168-.35 4.23 1.133 4.582 3.312s-1.125 4.23-3.305 4.584c-.747.124-3.868.589-7.81.589z"/><path d="m136.701 196.082c-.582 0-1.172-.127-1.73-.395-1.988-.957-2.828-3.348-1.871-5.338 2.93-6.096 3.152-24.859-1.793-32.588-1.703-2.66-3.23-2.895-4.379-2.93-11.016.172-19.09 16.324-19.168 16.486-.957 1.992-3.348 2.83-5.34 1.873-1.988-.957-2.828-3.348-1.871-5.338.41-.85 10.172-20.771 26.254-21.021 3.23-.018 7.691 1.059 11.242 6.619 6.711 10.49 6.164 32.254 2.266 40.363-.688 1.435-2.118 2.269-3.61 2.269z"/><path d="m168.549 172.586c-1.445 0-2.84-.785-3.555-2.156-1.016-1.959-.254-4.375 1.707-5.393.355-.186 8.812-4.531 18.074-5.24 2.191-.168 4.125 1.48 4.293 3.684s-1.48 4.125-3.684 4.293c-7.652.586-14.922 4.324-14.996 4.361-.589.306-1.218.451-1.839.451z"/></g><g><path d="m210.566 165.604c13.696-5.772 23.508-21.027 23.508-36.382 0-19.48-15.792-35.272-35.272-35.272-4.541 0-8.602.654-12.208 1.843-10.386 3.425-16.505 13.682-16.411 24.618.038 4.416-1.444 8.869-6.613 11.183-.005.007-.009.013-.014.019-.63 13.559 10.162 26.641 21.137 32.881" fill="#ffded5"/><path d="m210.564 169.605c-1.559 0-3.043-.92-3.688-2.449-.855-2.035.098-4.381 2.133-5.238 12.203-5.143 21.062-18.895 21.062-32.697 0-17.242-14.027-31.271-31.27-31.271-3.965 0-7.652.553-10.957 1.643-8.258 2.723-13.746 11.074-13.664 20.783.051 5.965-2.277 10.693-6.617 13.574.637 11.01 9.801 21.777 19.105 27.068 1.922 1.092 2.594 3.533 1.5 5.453-1.09 1.918-3.527 2.594-5.453 1.5-11.66-6.629-23.883-20.893-23.156-36.543.027-.559.168-1.104.418-1.604.074-.148.168-.311.262-.449.418-.627 1.004-1.125 1.695-1.432 2-.896 4.289-2.557 4.246-7.498-.113-13.201 7.586-24.635 19.156-28.451 4.117-1.357 8.648-2.045 13.465-2.045 21.652 0 39.27 17.617 39.27 39.271 0 16.879-10.914 33.73-25.953 40.068-.507.216-1.034.317-1.554.317zm-46.996-38.011h.039z" fill="#4c241d"/></g><circle cx="181.809" cy="129.57" fill="#4c241d" r="4"/><g><path d="m156.056 96.42s-71.371 77.958-107.371 25.958" fill="#f4aeab"/><path d="m80.658 144.258c-1.02 0-2.035-.033-3.047-.102-13.031-.887-23.867-7.447-32.215-19.502-1.258-1.816-.805-4.309 1.012-5.566s4.305-.805 5.566 1.012c6.988 10.094 15.551 15.352 26.176 16.074 33.59 2.314 74.543-42.008 74.957-42.455 1.492-1.629 4.023-1.736 5.648-.25 1.633 1.492 1.742 4.023.25 5.652-1.73 1.891-41.753 45.137-78.347 45.137z" fill="#4c241d"/></g></g></svg>