<svg id="newborn" enable-background="new 0 0 300 300" height="512" viewBox="0 0 300 300" width="512" xmlns="http://www.w3.org/2000/svg"><g><circle cx="149.1" cy="135.074" fill="#f9d7f7" r="90"/><path d="m75.752 74.422c-1.023 0-2.047-.391-2.828-1.172-1.562-1.562-1.562-4.094 0-5.656l14.695-14.695c1.562-1.562 4.094-1.562 5.656 0s1.562 4.094 0 5.656l-14.695 14.695c-.781.781-1.805 1.172-2.828 1.172z" fill="#4c241d"/><path d="m90.447 74.422c-1.023 0-2.047-.391-2.828-1.172l-14.695-14.695c-1.562-1.562-1.562-4.094 0-5.656s4.094-1.562 5.656 0l14.695 14.695c1.562 1.562 1.562 4.094 0 5.656-.781.781-1.804 1.172-2.828 1.172z" fill="#4c241d"/><path d="m111.315 141.475s-8.77 27.737 5.241 41.32 50.661 3.814 68.843-10.269c27.694-21.45 22.353-41.749 22.353-41.749s-31.328-15.596-45.456-12.139c-14.129 3.457-33.593 15.706-33.593 15.706s1.503-18.337-8.041-14.504-18.432 6.095-18.432 6.095-14.746-12.801-19.131 3.139 7.864 23.27 16.814 22.687 13.534-.207 13.534-.207" fill="#ffded5"/><g fill="#4c241d"><path d="m136.904 193.34c-9.229 0-17.52-2.232-23.133-7.674-15.605-15.127-6.66-44.168-6.271-45.396.666-2.104 2.912-3.271 5.016-2.607 2.105.662 3.275 2.908 2.613 5.014-.078.256-7.84 25.564 4.211 37.246 11.438 11.088 45.531 3.445 63.611-10.559 24.994-19.359 21.102-36.871 20.924-37.605-.514-2.133.777-4.303 2.904-4.84 2.131-.531 4.285.721 4.844 2.842.244.934 5.674 23.121-23.773 45.928-12.258 9.493-33.309 17.649-50.946 17.651z"/><path d="m166.453 158.916c-11.838 0-25.074-1.602-31.711-7.846-2.84-2.67-4.373-6.09-4.432-9.891-.32-20.658 28.596-28.115 29.826-28.422 2.145-.529 4.316.766 4.85 2.912.535 2.143-.77 4.314-2.912 4.85-6.672 1.666-23.949 8.602-23.764 20.535.025 1.654.633 2.986 1.912 4.189 4.52 4.25 16.369 6.266 32.494 5.523 2.188-.074 4.078 1.605 4.18 3.812s-1.605 4.078-3.812 4.18c-2.121.099-4.35.158-6.631.158z"/><path d="m99.887 155.633c-7.131 0-16.867-1.133-21.883-6.662-2.102-2.314-4.293-6.416-2.799-12.807 2.004-8.576 5.461-13.477 10.568-14.977 7.424-2.191 15.037 4.1 20.109 9.014 1.588 1.539 1.627 4.07.09 5.656-1.539 1.59-4.074 1.623-5.656.09-7.643-7.406-11.135-7.418-12.289-7.084-1.98.582-3.814 3.906-5.033 9.121-.762 3.264.166 4.764.932 5.609 3.928 4.336 16.395 4.5 23.328 3.594 2.184-.295 4.199 1.25 4.49 3.441.289 2.188-1.248 4.197-3.438 4.488-.843.114-4.167.517-8.419.517z"/><path d="m129.994 163.586c-.582 0-1.172-.127-1.73-.395-1.992-.957-2.83-3.348-1.873-5.338 2.932-6.096 3.15-24.857-1.793-32.586-1.701-2.662-3.33-2.869-4.379-2.932-9.24.143-16.971 11.953-19.17 16.492-.961 1.986-3.359 2.816-5.338 1.861-1.988-.959-2.824-3.344-1.869-5.332.408-.848 10.168-20.771 26.252-21.021 3.084-.02 7.689 1.059 11.244 6.621 6.709 10.49 6.162 32.254 2.264 40.361-.69 1.435-2.12 2.269-3.608 2.269z"/><path d="m161.84 140.088c-1.447 0-2.844-.787-3.555-2.16-1.016-1.959-.254-4.369 1.705-5.387.355-.186 8.811-4.531 18.076-5.24 2.229-.189 4.125 1.48 4.293 3.684s-1.48 4.125-3.684 4.293c-7.598.582-14.93 4.326-15.002 4.365-.587.302-1.214.445-1.833.445z"/></g><g><path d="m203.856 133.108c13.696-5.772 23.508-21.027 23.508-36.382 0-19.48-15.792-35.272-35.272-35.272-4.541 0-8.602.654-12.208 1.843-10.386 3.425-16.506 13.682-16.411 24.618.038 4.416-1.444 8.869-6.613 11.183-.005.007-.009.013-.014.019-.63 13.559 10.162 26.641 21.137 32.881" fill="#ffded5"/><path d="m203.859 137.109c-1.561 0-3.043-.92-3.688-2.449-.859-2.035.096-4.381 2.133-5.238 12.203-5.143 21.061-18.893 21.061-32.695 0-17.244-14.029-31.273-31.273-31.273-3.965 0-7.65.553-10.953 1.643-8.258 2.723-13.75 11.076-13.666 20.783.053 5.965-2.275 10.693-6.617 13.574.633 11.01 9.797 21.775 19.105 27.068 1.92 1.092 2.592 3.533 1.5 5.453-1.09 1.924-3.529 2.6-5.453 1.5-11.664-6.629-23.885-20.895-23.156-36.543.027-.559.168-1.104.418-1.604.047-.094.102-.191.156-.283.422-.703 1.049-1.262 1.799-1.598 2.002-.896 4.291-2.559 4.248-7.498-.113-13.201 7.586-24.635 19.16-28.451 4.111-1.357 8.641-2.045 13.459-2.045 21.656 0 39.273 17.617 39.273 39.273 0 16.879-10.916 33.729-25.955 40.066-.506.216-1.033.317-1.551.317z" fill="#4c241d"/></g><circle cx="175.1" cy="97.074" fill="#4c241d" r="4"/><g><path d="m238.817 246.508-19.661-18.503 28.677-24.616 16.973 14.972" fill="#ffded5"/><path d="m238.816 250.508c-.984 0-1.969-.359-2.742-1.088l-19.66-18.504c-.826-.777-1.283-1.869-1.256-3.004.025-1.135.531-2.205 1.393-2.943l28.678-24.615c1.514-1.301 3.754-1.285 5.252.035l16.973 14.973c1.656 1.461 1.814 3.99.354 5.646-1.463 1.656-3.986 1.814-5.646.354l-14.361-12.67-22.66 19.449 16.42 15.455c1.607 1.514 1.686 4.045.17 5.654-.79.836-1.85 1.258-2.915 1.258z" fill="#4c241d"/></g><circle cx="37.1" cy="127.074" fill="#4c241d" r="6"/><circle cx="43.1" cy="101.074" fill="#4c241d" r="4"/><circle cx="163.1" cy="261.074" fill="#4c241d" r="4"/><g><path d="m182.138 174.521-1.97 1.182c-9.081 5.449-19.031 9.295-29.416 11.372s2.92 20.072 27.882 28.393c0 0 32.845 10.365 41.166 18.685l31.386-31.386-27.534-25.242c-7.331-4.887-11.734-13.115-11.734-21.925 0-4.437-.715-8.845-2.119-13.055l-7.425-22.274c-1.679-5.036-6.844-8.033-12.049-6.992-6.208 1.242-9.923 7.643-7.921 13.649l8.711 26.133-1.94 2.424c-7.029 8.786-6.38 22.344-.761 31.589" fill="#9dc1e4"/><path d="m219.801 238.152c-1.023 0-2.047-.391-2.828-1.172-6.254-6.252-30.664-14.895-39.541-17.697-27.053-9.018-30.504-30.715-30.639-31.633-.305-2.105 1.09-4.082 3.176-4.498 9.957-1.992 19.426-5.652 28.143-10.879l1.945-1.168c-.006-6.371 1.766-12.83 5.996-18.117l.58-.725-8.023-24.068c-1.316-3.951-.873-8.283 1.217-11.885s5.631-6.137 9.713-6.953c7.18-1.441 14.318 2.713 16.631 9.648l7.424 22.275c1.543 4.631 2.324 9.447 2.324 14.32 0 7.49 3.721 14.441 9.953 18.596.17.113.332.24.484.379l27.533 25.242c.805.738 1.271 1.771 1.297 2.863.023 1.09-.4 2.143-1.172 2.914l-31.385 31.385c-.781.783-1.805 1.173-2.828 1.173zm-64.088-48.088c2.041 5.566 7.949 16.197 24.188 21.609 3.068.969 28.322 9.078 39.629 17.094l25.873-25.875-24.234-22.217c-8.303-5.66-13.25-15.01-13.25-25.074 0-4.012-.645-7.979-1.914-11.791l-7.424-22.273c-1.041-3.117-4.26-4.98-7.471-4.336-1.861.373-3.41 1.482-4.363 3.125-.953 1.641-1.146 3.537-.547 5.338l8.711 26.133c.43 1.287.176 2.705-.672 3.766l-1.939 2.424c-6.232 7.789-4.893 19.73-.467 27.01 1.148 1.889.547 4.35-1.34 5.496-1.889 1.152-4.348.547-5.496-1.34-1.674-2.754-3.002-5.957-3.857-9.377-7.97 4.64-16.499 8.091-25.427 10.288z" fill="#4c241d"/></g><g><path d="m60.741 246.508 19.661-18.503-28.677-24.616-16.973 14.972" fill="#ffded5"/><path d="m60.742 250.508c-1.064 0-2.125-.422-2.912-1.258-1.516-1.609-1.438-4.141.17-5.654l16.42-15.455-22.66-19.449-14.361 12.67c-1.66 1.459-4.188 1.303-5.646-.354-1.461-1.656-1.303-4.186.354-5.646l16.973-14.973c1.498-1.32 3.738-1.336 5.252-.035l28.678 24.615c.861.738 1.367 1.809 1.393 2.943.027 1.135-.43 2.227-1.256 3.004l-19.66 18.504c-.776.728-1.76 1.088-2.745 1.088z" fill="#4c241d"/></g><g><path d="m117.421 174.521 1.97 1.182c9.081 5.449 19.031 9.295 29.416 11.372s-2.92 20.072-27.882 28.393c0 0-32.845 10.365-41.166 18.685l-31.386-31.386 27.534-25.242c7.331-4.887 11.734-13.115 11.734-21.925 0-4.437.715-8.845 2.119-13.055l7.425-22.274c1.679-5.036 6.844-8.033 12.049-6.992 6.208 1.242 9.923 7.643 7.921 13.649l-8.711 26.133 1.94 2.424c7.029 8.786 6.38 22.344.761 31.589" fill="#9dc1e4"/><path d="m79.758 238.152c-1.023 0-2.047-.391-2.828-1.172l-31.385-31.385c-.771-.771-1.195-1.824-1.172-2.914.025-1.092.492-2.125 1.297-2.863l27.533-25.242c.152-.139.314-.266.484-.379 6.232-4.154 9.953-11.105 9.953-18.596 0-4.879.781-9.697 2.324-14.32l7.424-22.275c2.312-6.932 9.449-11.092 16.629-9.648 4.084.816 7.625 3.352 9.715 6.953s2.533 7.934 1.217 11.885l-8.023 24.068.58.723c4.23 5.289 6.002 11.748 5.996 18.119l1.945 1.168c8.715 5.227 18.184 8.887 28.143 10.879 2.086.416 3.48 2.393 3.176 4.498-.135.918-3.586 22.615-30.576 31.613-8.939 2.822-33.35 11.465-39.604 17.717-.781.781-1.805 1.171-2.828 1.171zm-25.602-35.259 25.873 25.875c11.307-8.016 36.566-16.127 39.691-17.113 16.182-5.396 22.082-16.014 24.123-21.59-8.928-2.197-17.459-5.648-25.426-10.289-.855 3.42-2.184 6.623-3.857 9.377-1.145 1.887-3.6 2.488-5.496 1.34-1.887-1.146-2.488-3.607-1.34-5.496 4.426-7.281 5.768-19.223-.465-27.01l-1.939-2.424c-.848-1.061-1.102-2.479-.672-3.766l8.711-26.133c.6-1.801.406-3.695-.547-5.338s-2.502-2.752-4.365-3.125c-3.225-.641-6.43 1.223-7.469 4.336l-7.424 22.275c-1.27 3.807-1.914 7.771-1.914 11.789 0 10.064-4.947 19.414-13.25 25.074z" fill="#4c241d"/></g><g fill="#4c241d"><path d="m251.1 48.586c-2.209 0-4-1.791-4-4v-5.66c0-2.209 1.791-4 4-4s4 1.791 4 4v5.66c0 2.209-1.791 4-4 4z"/><path d="m251.1 71.223c-2.209 0-4-1.791-4-4v-5.66c0-2.209 1.791-4 4-4s4 1.791 4 4v5.66c0 2.209-1.791 4-4 4z"/><path d="m242.611 57.074h-5.66c-2.209 0-4-1.791-4-4s1.791-4 4-4h5.66c2.209 0 4 1.791 4 4s-1.791 4-4 4z"/><path d="m265.248 57.074h-5.66c-2.209 0-4-1.791-4-4s1.791-4 4-4h5.66c2.209 0 4 1.791 4 4s-1.791 4-4 4z"/></g></g></svg>