<svg id="test" enable-background="new 0 0 300 300" height="512" viewBox="0 0 300 300" width="512" xmlns="http://www.w3.org/2000/svg"><g><circle cx="134" cy="122" fill="#f9d7f7" r="90"/><circle cx="64" cy="204" fill="#4c241d" r="4"/><path d="m42 124c-7.719 0-14-6.281-14-14s6.281-14 14-14 14 6.281 14 14-6.281 14-14 14zm0-20c-3.309 0-6 2.691-6 6s2.691 6 6 6 6-2.691 6-6-2.691-6-6-6z" fill="#4c241d"/><g><path d="m76 264 4-20 40-12v-20h32v20l40 12 4 20" fill="#a9ba5a"/><path d="m195.996 268c-1.867 0-3.539-1.314-3.918-3.215l-3.529-17.645-37.697-11.309c-1.694-.507-2.852-2.065-2.852-3.831v-16h-24v16c0 1.766-1.158 3.324-2.852 3.832l-37.697 11.309-3.529 17.645c-.432 2.166-2.539 3.561-4.707 3.137-2.166-.434-3.57-2.541-3.137-4.707l4-20c.289-1.449 1.355-2.621 2.773-3.047l37.149-11.146v-17.023c0-2.209 1.791-4 4-4h32c2.209 0 4 1.791 4 4v17.023l37.148 11.145c1.418.426 2.484 1.598 2.773 3.047l4 20c.434 2.166-.971 4.273-3.137 4.707-.264.053-.528.078-.788.078z" fill="#4c241d"/></g><g><path d="m136 252c13.821 0 25.561-6.584 30.037-15.789l-14.037-4.211v-20h-32v20l-14.037 4.211c4.476 9.205 16.216 15.789 30.037 15.789z" fill="#ffded5"/><path d="m136 256c-15.104 0-28.305-7.08-33.635-18.039-.512-1.055-.537-2.283-.066-3.357.473-1.074 1.391-1.887 2.516-2.225l11.185-3.356v-17.023c0-2.209 1.791-4 4-4h32c2.209 0 4 1.791 4 4v17.023l11.186 3.355c1.125.338 2.043 1.15 2.516 2.225.471 1.074.445 2.303-.066 3.357-5.331 10.96-18.532 18.04-33.636 18.04zm-23.748-17.5c5.051 5.816 13.977 9.5 23.748 9.5s18.697-3.684 23.748-9.5l-8.896-2.668c-1.694-.508-2.852-2.066-2.852-3.832v-16h-24v16c0 1.766-1.158 3.324-2.852 3.832z" fill="#4c241d"/></g><g><path d="m180 170.668v-24.168c6.674 0 12.084 5.41 12.084 12.084s-5.41 12.084-12.084 12.084z" fill="#ffded5"/><path d="m180 174.668c-2.209 0-4-1.791-4-4v-24.168c0-2.209 1.791-4 4-4 8.869 0 16.084 7.215 16.084 16.084s-7.215 16.084-16.084 16.084zm4-23.107v14.047c2.438-1.395 4.084-4.02 4.084-7.023s-1.646-5.63-4.084-7.024z" fill="#4c241d"/></g><g><path d="m92 146.5v24.168c-6.674 0-12.084-5.41-12.084-12.084s5.41-12.084 12.084-12.084z" fill="#ffded5"/><path d="m92 174.668c-8.869 0-16.084-7.215-16.084-16.084s7.215-16.084 16.084-16.084c2.209 0 4 1.791 4 4v24.168c0 2.209-1.791 4-4 4zm-4-23.107c-2.438 1.395-4.084 4.02-4.084 7.023s1.646 5.629 4.084 7.023z" fill="#4c241d"/></g><g><path d="m163.005 208.675-.752.432c-15.696 9.003-34.819 9.199-50.689.519l-1.98-1.083c-10.828-5.921-17.584-17.432-17.584-29.957v-61.781l29.333-22.305 58.667 22.305v62.242c0 12.28-6.497 23.606-16.995 29.628z" fill="#ffded5"/><path d="m136.451 220.039c-9.189 0-18.385-2.297-26.809-6.904l-1.979-1.082c-12.128-6.635-19.663-19.459-19.663-33.467v-61.781c0-1.25.584-2.428 1.578-3.184l29.334-22.305c1.102-.834 2.555-1.045 3.844-.555l58.666 22.305c1.553.59 2.578 2.078 2.578 3.738v62.242c0 13.691-7.283 26.373-19.006 33.098l-.75.432c-8.67 4.973-18.228 7.463-27.793 7.463zm-40.451-101.25v59.797c0 11.084 5.939 21.217 15.502 26.447l1.979 1.082c14.727 8.057 32.219 7.879 46.781-.479l.75-.43h.002c9.244-5.305 14.986-15.328 14.986-26.16v-59.484l-54.012-20.535z" fill="#4c241d"/></g><path d="m135.752 192.258c-.367 0-.736-.016-1.105-.049-3.311-.295-6.309-1.859-8.439-4.406-1.418-1.695-1.195-4.217.498-5.635 1.695-1.418 4.217-1.197 5.635.498.762.91 1.832 1.469 3.016 1.574 1.469.123 2.906-.479 3.842-1.627 1.396-1.713 3.914-1.973 5.627-.58 1.715 1.395 1.975 3.914.58 5.627-2.383 2.926-5.927 4.598-9.654 4.598z" fill="#f53e28"/><g><path d="m152 92h-32v-21.021c0-6.064 4.915-10.979 10.979-10.979h10.043c6.063 0 10.978 4.915 10.978 10.979z" fill="#ffce56"/><path d="m152 96h-32c-2.209 0-4-1.791-4-4v-21.021c0-8.26 6.719-14.979 14.979-14.979h10.043c8.259 0 14.978 6.719 14.978 14.979v21.021c0 2.209-1.791 4-4 4zm-28-8h24v-17.021c0-3.848-3.131-6.979-6.979-6.979h-10.043c-3.848 0-6.979 3.131-6.979 6.979v17.021z" fill="#4c241d"/></g><path d="m111.752 165.258c-.367 0-.736-.016-1.105-.049-3.311-.295-6.309-1.859-8.439-4.406-1.418-1.695-1.195-4.217.498-5.635 1.697-1.42 4.219-1.197 5.635.498.762.91 1.832 1.469 3.016 1.574 1.461.129 2.906-.479 3.842-1.627 1.395-1.715 3.914-1.975 5.627-.58 1.715 1.395 1.975 3.914.58 5.627-2.383 2.926-5.927 4.598-9.654 4.598z" fill="#4c241d"/><path d="m159.752 165.258c-.367 0-.736-.016-1.105-.049-3.311-.295-6.309-1.859-8.439-4.406-1.418-1.695-1.195-4.217.498-5.635 1.695-1.42 4.213-1.197 5.635.498.762.91 1.832 1.469 3.016 1.574 1.455.129 2.906-.479 3.842-1.627 1.396-1.715 3.912-1.975 5.627-.58s1.975 3.914.58 5.627c-2.383 2.926-5.927 4.598-9.654 4.598z" fill="#4c241d"/><g><path d="m180 133.713v-18.323c0-21.755-17.994-39.39-40.19-39.39h-7.62c-21.288 0-38.664 16.234-40.054 36.753-.067.026-.136.052-.136.052v2.585 16.61 1.713c0-.589.038-1.146.059-1.718 1.023-.089 32.449-2.924 48.222-16.885 26.446 18.532 39.719 18.603 39.719 18.603z" fill="#ffce56"/><path d="m92 137.713c-2.209 0-4-1.791-4-4v-20.908c0-.459.078-.906.225-1.324 2.031-22.219 21.148-39.481 43.964-39.481h7.621c24.366 0 44.19 19.465 44.19 43.391v18.322c0 1.064-.424 2.086-1.18 2.836-.75.746-1.764 1.164-2.82 1.164-.008 0-.014 0-.021 0-.574-.004-13.963-.277-39.494-17.605-14.215 10.775-36.738 14.49-44.977 15.529-.68 1.238-1.996 2.076-3.508 2.076zm48.281-26.604c.801 0 1.604.238 2.295.725 16.684 11.691 27.877 15.744 33.424 17.145v-13.588c0-19.514-16.234-35.391-36.189-35.391h-7.621c-18.967 0-34.807 14.506-36.062 33.021-.018.264-.061.52-.127.768v13.701c9.039-1.273 30.16-5.225 41.631-15.377.751-.666 1.698-1.004 2.649-1.004z" fill="#4c241d"/></g><g><path d="m246 68h-4c-5.523 0-10 4.477-10 10v100c0 3.261 1.585 6.129 4 7.955v18.045h16v-18.045c2.415-1.825 4-4.694 4-7.955v-100c0-5.523-4.477-10-10-10z" fill="#9dc1e4"/><path d="m252 208h-16c-2.209 0-4-1.791-4-4v-16.246c-2.564-2.602-4-6.059-4-9.754v-100c0-7.719 6.281-14 14-14h4c7.719 0 14 6.281 14 14v100c0 3.695-1.436 7.152-4 9.754v16.246c0 2.209-1.791 4-4 4zm-12-8h8v-14.045c0-1.254.588-2.436 1.588-3.191 1.533-1.158 2.412-2.895 2.412-4.764v-100c0-3.309-2.691-6-6-6h-4c-3.309 0-6 2.691-6 6v100c0 1.869.879 3.605 2.412 4.764 1 .756 1.588 1.938 1.588 3.191z" fill="#4c241d"/></g><path d="m140.283 119.109c-1.162 0-2.314-.504-3.105-1.477l-12.281-15.109c-1.395-1.715-1.133-4.234.58-5.627 1.715-1.393 4.232-1.137 5.627.58l12.281 15.109c1.395 1.715 1.133 4.234-.58 5.627-.743.604-1.635.897-2.522.897z" fill="#4c241d"/><g><path d="m246 152h-4c-5.523 0-10-4.477-10-10v-28c0-5.523 4.477-10 10-10h4c5.523 0 10 4.477 10 10v28c0 5.523-4.477 10-10 10z" fill="#6b4f5b"/><path d="m246 156h-4c-7.719 0-14-6.281-14-14v-28c0-7.719 6.281-14 14-14h4c7.719 0 14 6.281 14 14v28c0 7.719-6.281 14-14 14zm-4-48c-3.309 0-6 2.691-6 6v28c0 3.309 2.691 6 6 6h4c3.309 0 6-2.691 6-6v-28c0-3.309-2.691-6-6-6z" fill="#4c241d"/></g><g><path d="m236 120h16" fill="#e66353"/><path d="m252 124h-16c-2.209 0-4-1.791-4-4s1.791-4 4-4h16c2.209 0 4 1.791 4 4s-1.791 4-4 4z" fill="#e86436"/></g><g><path d="m236 136h16" fill="#e66353"/><path d="m252 140h-16c-2.209 0-4-1.791-4-4s1.791-4 4-4h16c2.209 0 4 1.791 4 4s-1.791 4-4 4z" fill="#e86436"/></g><g fill="#4c241d"><path d="m232.936 252h-20.936c-2.209 0-4-1.791-4-4s1.791-4 4-4h20.936c3.895 0 7.064-3.17 7.064-7.064v-8.936c0-2.209 1.791-4 4-4s4 1.791 4 4v8.936c0 8.306-6.758 15.064-15.064 15.064z"/><path d="m256 236c-1.023 0-2.047-.391-2.828-1.172l-9.172-9.172-9.172 9.172c-1.562 1.562-4.094 1.562-5.656 0s-1.562-4.094 0-5.656l12-12c1.562-1.562 4.094-1.562 5.656 0l12 12c1.562 1.562 1.562 4.094 0 5.656-.781.781-1.805 1.172-2.828 1.172z"/><path d="m244 56c-2.209 0-4-1.791-4-4v-12c0-2.209 1.791-4 4-4s4 1.791 4 4v12c0 2.209-1.791 4-4 4z"/><path d="m260 60c-1.023 0-2.047-.391-2.828-1.172-1.562-1.562-1.562-4.094 0-5.656l8-8c1.562-1.562 4.094-1.562 5.656 0s1.562 4.094 0 5.656l-8 8c-.781.781-1.805 1.172-2.828 1.172z"/><path d="m228 60c-1.023 0-2.047-.391-2.828-1.172l-8-8c-1.562-1.562-1.562-4.094 0-5.656s4.094-1.562 5.656 0l8 8c1.562 1.562 1.562 4.094 0 5.656-.781.781-1.805 1.172-2.828 1.172z"/></g></g></svg>