<svg id="pregnant" enable-background="new 0 0 300 300" height="512" viewBox="0 0 300 300" width="512" xmlns="http://www.w3.org/2000/svg"><g><circle cx="131.093" cy="142.003" fill="#f9d7f7" r="90"/><g fill="#4c241d"><path d="m65.745 97.351c-1.023 0-2.047-.391-2.828-1.172-1.562-1.562-1.562-4.094 0-5.656l14.695-14.695c1.562-1.562 4.094-1.562 5.656 0s1.562 4.094 0 5.656l-14.695 14.695c-.781.781-1.805 1.172-2.828 1.172z"/><path d="m80.44 97.351c-1.023 0-2.047-.391-2.828-1.172l-14.695-14.695c-1.562-1.562-1.562-4.094 0-5.656s4.094-1.562 5.656 0l14.695 14.695c1.562 1.562 1.562 4.094 0 5.656-.781.781-1.804 1.172-2.828 1.172z"/><circle cx="60.052" cy="151.951" r="4.276"/></g><path d="m241.093 84.003-40-44h-92c.637-.053 50.603 77.436 8 116-28.133 25.466-44 68 0 104h108c-12-12-2-22-2-22 78-86-12-132-12-132l22-6z" fill="#ffded5"/><path d="m185.093 120.003s28-12 32 16c0 0 48 12 20 60s-44 40-44 40-28 24-56 8-20-56 8-64 18-14 22-30 8-24 18-30z" fill="#b5a19c"/><path d="m117.091 264.003c-.891 0-1.787-.297-2.531-.904-18.646-15.256-28.342-32.66-28.818-51.732-.502-20.121 9.945-41.381 28.668-58.328 38.904-35.217-6.193-107.234-8.232-110.297-.598-.637-.992-1.471-1.07-2.408-.182-2.201 1.455-4.135 3.656-4.316 2.729-.205 3.656 1.029 8.188 8.959 2.295 4.016 5.764 10.49 9.248 18.527 10.426 24.045 23.457 68.42-6.422 95.465-16.992 15.383-26.482 34.408-26.037 52.199.416 16.637 9.125 32.025 25.887 45.74 1.709 1.398 1.961 3.918.562 5.629-.793.966-1.941 1.466-3.099 1.466z" fill="#4c241d"/><path d="m225.093 264.003c-1.023 0-2.047-.391-2.828-1.172-7.523-7.521-7.715-14.646-6.553-19.299 1.234-4.932 4.217-8.021 4.553-8.357 23.863-26.318 33.904-51.367 29.709-74.312-6.078-33.254-40.355-51.121-40.701-51.297-1.6-.818-2.457-2.604-2.096-4.363.359-1.762 1.852-3.066 3.645-3.189.254-.018 24.557-1.871 26.186-16.447-15.9-16.096-38.717-42.686-38.951-42.959-1.438-1.678-1.244-4.203.434-5.641 1.676-1.438 4.199-1.244 5.641.434.238.279 24.086 28.068 39.791 43.775.75.75 1.172 1.768 1.172 2.828 0 14.979-13.174 21.387-23.068 24.088 11.719 8.223 31.072 25.365 35.818 51.332 4.668 25.523-6.027 52.867-31.787 81.268-1.287 1.34-6.732 7.887 1.865 16.484 1.562 1.562 1.562 4.094 0 5.656-.784.781-1.807 1.171-2.83 1.171z" fill="#4c241d"/><path d="m194.818 152.387s20.009-6.326 29.808 3.781c9.799 10.108 2.751 36.546-7.408 49.662-15.474 19.978-30.117 16.125-30.117 16.125s-11.251-22.599-8.757-32.791 11.33-24.233 11.33-24.233-13.228 1.084-10.463-5.801 4.397-13.296 4.397-13.296-9.72-8.46 1.778-11.623 17.272 3.495 16.852 9.951-.149 9.763-.149 9.763" fill="#ffded5"/><g fill="#4c241d"><path d="m190.186 226.242c-2.414 0-3.902-.367-4.102-.418-2.137-.562-3.412-2.75-2.852-4.887.561-2.117 2.717-3.377 4.842-2.863.602.135 12.582 2.605 25.98-14.693 9.846-12.711 15.348-36.539 7.699-44.428-7.947-8.199-25.561-2.809-25.736-2.75-2.1.658-4.35-.512-5.014-2.617-.662-2.105.502-4.348 2.607-5.014.91-.289 22.498-6.934 33.885 4.811 11.832 12.205 3.553 41.125-7.117 54.896-12.1 15.627-24.096 17.963-30.192 17.963z"/><path d="m204.005 206.306c-.154 0-.309-.01-.465-.027-2.193-.252-3.768-2.236-3.516-4.432.947-8.234.92-23.043-3.182-27.715-.699-.797-1.4-1.143-2.344-1.156-.039-.002-.078-.002-.117-.002-7.781 0-12.539 12.053-13.598 16.297-.535 2.143-2.719 3.451-4.848 2.914-2.145-.533-3.449-2.705-2.914-4.848 2.078-8.34 8.902-22.363 21.344-22.363.086 0 .17.002.258.002 3.201.051 6.049 1.393 8.234 3.883 7.76 8.846 5.408 31.367 5.113 33.906-.233 2.039-1.963 3.541-3.965 3.541z"/><path d="m201.805 153.833c-.211 0-.426-.018-.641-.053-2.178-.35-3.662-2.4-3.314-4.58.613-3.85.516-10.48-1.637-12.486-.258-.24-1.033-.965-3.494-.391-7.209 1.684-8.689 3.066-8.943 3.377.117.02.496 1.07 2.705 3.35 1.537 1.586 1.498 4.117-.09 5.656-1.582 1.533-4.117 1.498-5.656-.09-2.83-2.92-5.914-6.838-4.619-11.246 1.492-5.08 7.988-7.25 14.783-8.836 5.475-1.273 8.881.566 10.775 2.336 6.125 5.719 4.301 18.201 4.074 19.605-.319 1.964-2.015 3.358-3.943 3.358z"/><path d="m196.557 171.673c-6.182 0-12.83-1.145-17.143-3.904-3.467-2.217-5.346-5.438-5.289-9.066.193-12.283 15.158-19.619 15.797-19.926 1.992-.945 4.379-.121 5.338 1.873.957 1.988.119 4.377-1.869 5.336-3.105 1.51-11.17 6.756-11.266 12.842-.006.35-.02 1.168 1.6 2.203 5.209 3.332 18.33 3.193 22.426 1.227 1.992-.951 4.381-.121 5.338 1.873.957 1.99.119 4.381-1.873 5.338-2.857 1.372-7.789 2.204-13.059 2.204z"/><path d="m187.473 204.759c-.102 0-.205-.004-.309-.012-2.203-.168-3.852-2.092-3.684-4.293.529-6.908 3.766-13.205 3.904-13.469 1.016-1.957 3.426-2.717 5.385-1.705 1.959 1.014 2.727 3.426 1.717 5.387-.025.051-2.627 5.154-3.029 10.396-.159 2.1-1.913 3.696-3.984 3.696z"/></g><g><path d="m188.783 219.144c-4.164 9.88-15.169 16.958-26.245 16.958-14.053 0-25.445-11.392-25.445-25.445 0-3.275.472-6.206 1.33-8.807 2.47-7.492 9.87-11.907 17.759-11.839 3.186.028 6.398-1.042 8.067-4.77.005-.003.009-.006.014-.01 9.781-.455 19.218 7.33 23.72 15.248" fill="#ffded5"/><path d="m162.538 240.103c-16.236 0-29.445-13.209-29.445-29.445 0-3.592.516-6.977 1.531-10.059 2.885-8.746 11.457-14.586 21.373-14.586.104 0 .203.002.305 0 2.834 0 3.764-1.215 4.297-2.406.199-.445.477-.85.822-1.193.207-.209.447-.4.695-.557.588-.373 1.266-.588 1.961-.621 11.752-.545 22.438 8.566 27.383 17.268 1.09 1.92.418 4.363-1.502 5.455-1.918 1.094-4.361.422-5.455-1.502-3.562-6.271-10.678-12.451-18.004-13.174-2.281 3.074-5.814 4.73-10.203 4.73-.094 0-.197.002-.299 0-6.453 0-11.977 3.639-13.775 9.09-.75 2.273-1.129 4.814-1.129 7.555 0 11.824 9.621 21.445 21.445 21.445 9.527 0 19.014-6.104 22.559-14.512.857-2.035 3.209-2.998 5.238-2.133 2.037.857 2.992 3.203 2.133 5.238-4.815 11.426-17.123 19.407-29.93 19.407zm1.721-54.869h.039z" fill="#4c241d"/></g><circle cx="162.788" cy="198.4" fill="#4c241d" r="2.886"/><path d="m91.093 152.003c-7.719 0-14-6.281-14-14s6.281-14 14-14 14 6.281 14 14-6.282 14-14 14zm0-20c-3.309 0-6 2.691-6 6s2.691 6 6 6 6-2.691 6-6-2.692-6-6-6z" fill="#4c241d"/><path d="m212.157 110.593c-.506 0-1.021-.098-1.52-.303l-5.436-2.236c-2.043-.84-3.018-3.178-2.178-5.221.84-2.041 3.176-3.02 5.221-2.178l5.436 2.236c2.043.84 3.018 3.178 2.178 5.221-.635 1.546-2.127 2.481-3.701 2.481z" fill="#4c241d"/></g></svg>