<svg id="analise" enable-background="new 0 0 300 300" height="512" viewBox="0 0 300 300" width="512" xmlns="http://www.w3.org/2000/svg"><g><circle cx="160" cy="127.082" fill="#f9d7f7" r="86"/><circle cx="62" cy="233.082" fill="#4c241d" r="4"/><path d="m76 61.082c-7.719 0-14-6.281-14-14s6.281-14 14-14 14 6.281 14 14-6.281 14-14 14zm0-20c-3.309 0-6 2.691-6 6s2.691 6 6 6 6-2.691 6-6-2.691-6-6-6z" fill="#4c241d"/><g><path d="m34 85.082h96v52h-96z" fill="#a9ba5a"/><path d="m130 141.082h-96c-2.211 0-4-1.791-4-4v-52c0-2.209 1.789-4 4-4h96c2.211 0 4 1.791 4 4v52c0 2.209-1.789 4-4 4zm-92-8h88v-44h-88z" fill="#4c241d"/></g><path d="m62 137.082c-1.574 0-3.012-.926-3.656-2.375l-13.23-29.773-7.914 10.549-6.398-4.801 12-16c.848-1.135 2.254-1.742 3.648-1.574 1.41.16 2.629 1.053 3.207 2.35l11.809 26.576 4.742-14.217c.438-1.314 1.523-2.309 2.875-2.627 1.355-.318 2.77.086 3.746 1.064l7.824 7.822 9.672-22.57c.59-1.381 1.906-2.312 3.406-2.414 1.492-.096 2.926.645 3.699 1.932l9.844 16.404 8.508-5.674c1.344-.895 3.094-.895 4.438 0l12 8-4.438 6.656-9.782-6.521-9.781 6.521c-.91.609-2.02.822-3.098.574-1.066-.24-1.988-.906-2.551-1.844l-7.977-13.293-8.918 20.811c-.523 1.219-1.617 2.102-2.918 2.352-1.324.258-2.648-.16-3.586-1.1l-7.422-7.424-5.957 17.861c-.52 1.566-1.949 2.65-3.602 2.73-.061.003-.128.005-.19.005z" fill="#4c241d"/><g><path d="m234 221.082h16v28h-16z" fill="#a9ba5a"/><path d="m250 253.082h-16c-2.211 0-4-1.791-4-4v-28c0-2.209 1.789-4 4-4h16c2.211 0 4 1.791 4 4v28c0 2.209-1.789 4-4 4zm-12-8h8v-20h-8z" fill="#4c241d"/></g><g><path d="m250 201.082h16v48h-16z" fill="#fc8c29"/><path d="m266 253.082h-16c-2.211 0-4-1.791-4-4v-48c0-2.209 1.789-4 4-4h16c2.211 0 4 1.791 4 4v48c0 2.209-1.789 4-4 4zm-12-8h8v-40h-8z" fill="#4c241d"/></g><g><path d="m230 61.082 6.142-18.426c-2.52-1.006-5.263-1.574-8.142-1.574-12.15 0-22 9.85-22 22s9.85 22 22 22 22-9.85 22-22c0-.675-.041-1.34-.101-2z" fill="#02eae6"/><path d="m228 89.082c-14.336 0-26-11.664-26-26s11.664-26 26-26c3.297 0 6.535.625 9.625 1.859 1.965.785 2.98 2.969 2.309 4.98l-4.383 13.16h14.348c2.07 0 3.801 1.582 3.984 3.646.07.777.117 1.559.117 2.354 0 14.337-11.664 26.001-26 26.001zm0-44c-9.926 0-18 8.074-18 18s8.074 18 18 18c9.25 0 16.891-7.012 17.891-16h-15.891c-1.285 0-2.492-.617-3.246-1.66-.75-1.043-.957-2.385-.547-3.605l4.824-14.475c-1-.172-2.011-.26-3.031-.26z" fill="#4c241d"/></g><g><path d="m236.142 42.656-6.142 18.426h19.899c-.758-8.399-6.232-15.423-13.757-18.426z" fill="#f53e28"/><path d="m249.898 65.082h-19.898c-1.285 0-2.492-.617-3.246-1.66-.75-1.043-.957-2.385-.547-3.605l6.141-18.426c.348-1.043 1.109-1.898 2.109-2.363.996-.463 2.148-.494 3.168-.086 9.145 3.65 15.375 11.996 16.258 21.781.102 1.119-.273 2.229-1.031 3.059-.758.827-1.829 1.3-2.954 1.3zm-14.347-8h9.422c-1.227-3.494-3.508-6.514-6.539-8.66z" fill="#4c241d"/></g><path d="m214 109.082h-64c-2.211 0-4-1.791-4-4s1.789-4 4-4h64c6.617 0 12-5.383 12-12 0-2.209 1.789-4 4-4s4 1.791 4 4c0 11.027-8.973 20-20 20z" fill="#4c241d"/><g><path d="m122 41.082h40v24h-40z" fill="#bd53b5"/><path d="m162 69.082h-40c-2.211 0-4-1.791-4-4v-24c0-2.209 1.789-4 4-4h40c2.211 0 4 1.791 4 4v24c0 2.209-1.789 4-4 4zm-36-8h32v-16h-32z" fill="#4c241d"/></g><path d="m258 185.102c-2.211 0-4-1.791-4-4v-42.032c0-3.303-2.688-5.988-5.988-5.988h-22.012c-2.211 0-4-1.791-4-4s1.789-4 4-4h22.012c7.715 0 13.988 6.275 13.988 13.988v42.031c0 2.21-1.789 4.001-4 4.001z" fill="#4c241d"/><path d="m186 121.082c-2.211 0-4-1.791-4-4v-48.973c0-6.08-4.945-11.027-11.027-11.027h-8.973c-2.211 0-4-1.791-4-4s1.789-4 4-4h8.973c10.492 0 19.027 8.535 19.027 19.027v48.973c0 2.209-1.789 4-4 4z" fill="#4c241d"/><path d="m105.55 215.052s-8.77 27.737 5.241 41.32 50.661 3.814 68.843-10.269c27.694-21.45 22.353-41.749 22.353-41.749s-31.328-15.596-45.456-12.139c-14.129 3.457-33.593 15.706-33.593 15.706s1.503-18.337-8.041-14.504-18.432 6.095-18.432 6.095-11.727-13.475-16.112 2.465 4.845 23.944 13.795 23.361 13.534-.207 13.534-.207" fill="#ffded5"/><g fill="#4c241d"><path d="m131.141 266.918c-9.23 0-17.52-2.232-23.133-7.674-15.605-15.131-6.66-44.168-6.27-45.396.664-2.105 2.902-3.273 5.016-2.607 2.105.662 3.273 2.908 2.613 5.014-.082.256-7.844 25.562 4.211 37.248 11.434 11.082 45.531 3.443 63.609-10.561 24.992-19.359 21.102-36.871 20.922-37.605-.516-2.133.777-4.303 2.906-4.84 2.133-.535 4.281.721 4.84 2.842.246.934 5.676 23.121-23.77 45.928-12.257 9.493-33.308 17.649-50.944 17.651z"/><path d="m160.77 232.533c-10.656 0-24.355-1.348-31.367-7.498-3.113-2.732-4.793-6.287-4.855-10.277-.32-20.666 28.594-28.115 29.824-28.422 2.137-.545 4.312.77 4.852 2.912.531 2.145-.77 4.314-2.914 4.85-6.672 1.664-23.949 8.598-23.762 20.535.027 1.74.703 3.135 2.129 4.387 7.727 6.779 31.211 5.758 39.617 4.785 2.156-.246 4.18 1.322 4.43 3.516.254 2.195-1.32 4.178-3.512 4.432-1.396.161-7.22.78-14.442.78z"/><path d="m94.844 229.264c-5.875 0-13.578-1.031-17.992-5.76-2.199-2.354-4.48-6.613-2.863-13.533 2.867-12.262 6.105-17.873 11.184-19.363 5.332-1.58 10.332 2.398 14.078 6.035 1.586 1.537 1.625 4.07.086 5.656-1.543 1.586-4.074 1.623-5.656.086-4.637-4.496-6.188-4.119-6.254-4.102-.445.131-2.816 1.398-5.648 13.508-.984 4.209.449 5.744.918 6.248 3.379 3.631 13.238 3.611 18.68 2.74 2.18-.344 4.23 1.131 4.582 3.312.352 2.18-1.125 4.23-3.305 4.584-.748.124-3.869.589-7.81.589z"/><path d="m124.227 237.164c-.582 0-1.172-.127-1.73-.395-1.988-.957-2.828-3.348-1.871-5.338 2.93-6.096 3.152-24.859-1.793-32.588-1.703-2.66-3.277-2.863-4.379-2.93-11.016.172-19.09 16.324-19.168 16.486-.957 1.992-3.348 2.83-5.34 1.873-1.988-.957-2.828-3.348-1.871-5.338.41-.85 10.172-20.771 26.254-21.021 3.199-.02 7.691 1.061 11.242 6.619 6.711 10.49 6.164 32.254 2.266 40.363-.689 1.435-2.118 2.269-3.61 2.269z"/><path d="m156.074 213.668c-1.445 0-2.84-.785-3.555-2.156-1.016-1.959-.254-4.375 1.707-5.393.355-.186 8.812-4.531 18.074-5.24 2.188-.178 4.125 1.482 4.293 3.684.168 2.203-1.48 4.125-3.684 4.293-7.652.586-14.922 4.324-14.996 4.361-.589.306-1.218.451-1.839.451z"/></g><g><path d="m198.091 206.686c13.696-5.772 23.508-21.027 23.508-36.382 0-19.48-15.792-35.272-35.272-35.272-4.541 0-8.602.654-12.208 1.843-10.386 3.425-16.505 13.682-16.411 24.618.038 4.416-1.444 8.869-6.613 11.183-.005.007-.009.013-.014.019-.63 13.559 10.162 26.641 21.137 32.881" fill="#ffded5"/><path d="m198.09 210.688c-1.559 0-3.043-.92-3.688-2.449-.855-2.035.098-4.381 2.133-5.238 12.203-5.143 21.062-18.895 21.062-32.697 0-17.242-14.027-31.271-31.27-31.271-3.965 0-7.652.553-10.957 1.643-8.258 2.723-13.746 11.074-13.664 20.783.051 5.965-2.277 10.693-6.617 13.574.637 11.01 9.801 21.777 19.105 27.068 1.922 1.092 2.594 3.533 1.5 5.453-1.086 1.92-3.531 2.592-5.453 1.5-11.66-6.629-23.883-20.893-23.156-36.543.027-.559.168-1.104.418-1.604.074-.148.168-.311.262-.449.418-.627 1.004-1.125 1.695-1.432 2-.896 4.289-2.557 4.246-7.498-.113-13.201 7.586-24.635 19.156-28.451 4.117-1.357 8.648-2.045 13.465-2.045 21.652 0 39.27 17.617 39.27 39.271 0 16.879-10.914 33.73-25.953 40.068-.507.215-1.035.317-1.554.317zm-46.996-38.012h.039z" fill="#4c241d"/></g><circle cx="169.334" cy="170.652" fill="#4c241d" r="4"/></g></svg>