<svg id="fetus" enable-background="new 0 0 300 300" height="512" viewBox="0 0 300 300" width="512" xmlns="http://www.w3.org/2000/svg"><g><circle cx="151.212" cy="128" fill="#f9d7f7" r="90"/><g fill="#4c241d"><path d="m157.212 70c-2.209 0-4-1.791-4-4v-8c0-2.209 1.791-4 4-4s4 1.791 4 4v8c0 2.209-1.791 4-4 4z"/><path d="m157.212 94c-2.209 0-4-1.791-4-4v-8c0-2.209 1.791-4 4-4s4 1.791 4 4v8c0 2.209-1.791 4-4 4z"/><path d="m149.212 78h-8c-2.209 0-4-1.791-4-4s1.791-4 4-4h8c2.209 0 4 1.791 4 4s-1.791 4-4 4z"/><path d="m173.212 78h-8c-2.209 0-4-1.791-4-4s1.791-4 4-4h8c2.209 0 4 1.791 4 4s-1.791 4-4 4z"/></g><path d="m104.939 194.059s-11.321 35.805 6.766 53.339 65.397 4.923 88.868-13.256c35.75-27.69 28.855-53.892 28.855-53.892s-40.44-20.132-58.679-15.67c-18.238 4.462-43.364 20.275-43.364 20.275s1.94-23.671-10.38-18.723-23.793 7.868-23.793 7.868-15.138-17.394-20.799 3.182 6.254 30.908 17.807 30.156 17.471-.267 17.471-.267" fill="#ffded5"/><g fill="#4c241d"><path d="m137.958 259.801c-12.516 0-22.545-3.236-29.037-9.529-19.637-19.035-8.289-55.861-7.797-57.418.666-2.104 2.896-3.273 5.018-2.607 2.105.662 3.273 2.908 2.611 5.016-.105.334-10.344 33.678 5.736 49.266 15.543 15.061 59.715 4.975 83.635-13.547 33.273-25.771 27.498-49.477 27.436-49.713-.561-2.137.715-4.324 2.852-4.887 2.145-.57 4.324.717 4.887 2.852.309 1.174 7.137 29.096-30.275 58.072-12.281 9.514-30.734 17.479-48.156 20.787-6.019 1.143-11.681 1.708-16.91 1.708z"/><path d="m176.104 215.471c-13.541 0-30.828-1.697-39.607-9.398-3.822-3.354-5.799-7.529-5.875-12.412-.398-25.762 36.068-35.154 37.621-35.541 2.152-.547 4.316.768 4.85 2.912.535 2.145-.77 4.314-2.912 4.85-8.863 2.211-31.809 11.488-31.559 27.654.039 2.6 1.041 4.672 3.15 6.521 10.307 9.045 41.061 7.727 52.037 6.459 2.191-.25 4.18 1.318 4.432 3.514.254 2.193-1.318 4.178-3.514 4.432-1.79.208-9.324 1.009-18.623 1.009z"/><path d="m91.052 211.248c-7.348 0-16.893-1.273-22.309-7.074-2.645-2.832-5.383-7.977-3.412-16.408 3.588-15.359 7.535-22.354 13.627-24.145 6.322-1.861 12.426 3.035 17.037 7.508 1.588 1.537 1.627 4.068.088 5.654-1.535 1.59-4.072 1.627-5.654.088-5.701-5.525-8.232-5.863-9.215-5.574-1.533.451-4.621 3.426-8.094 18.289-.949 4.062-.469 7.047 1.465 9.123 5.279 5.662 19.949 4.734 25.15 3.893 2.17-.344 4.232 1.131 4.586 3.312.352 2.178-1.127 4.23-3.307 4.586-.951.154-4.945.748-9.962.748z"/><path d="m129.052 221.438c-.582 0-1.172-.127-1.732-.395-1.99-.959-2.828-3.348-1.871-5.34 3.98-8.273 4.305-32.74-2.381-43.193-2.803-4.379-5.705-4.352-6.652-4.318-15.102.232-25.672 21.727-25.775 21.945-.959 1.986-3.352 2.826-5.34 1.863-1.988-.959-2.824-3.346-1.869-5.334.514-1.068 12.809-26.164 32.859-26.475 3.789.061 9.215 1.281 13.516 8.008 8.473 13.244 7.779 40.729 2.854 50.973-.691 1.432-2.121 2.266-3.609 2.266z"/><path d="m149.216 173.998c-.068 0-.139-.002-.209-.006-2.203-.113-3.898-1.992-3.789-4.197.01-.189.828-19.193-9.516-29.895-4.826-4.994-11.479-7.484-19.84-7.33-11.682.158-20.609-3.217-26.621-10.096-10.209-11.676-7.744-28.934-7.635-29.662.328-2.186 2.377-3.703 4.551-3.359 2.182.328 3.686 2.363 3.361 4.545-.033.227-1.975 14.422 5.773 23.244 4.396 5.006 11.367 7.492 20.445 7.328 10.625-.227 19.32 3.133 25.75 9.803 12.754 13.236 11.768 34.92 11.719 35.838-.11 2.133-1.876 3.787-3.989 3.787z"/></g><g><path d="m227.038 181.075c18.497-7.796 31.749-28.399 31.749-49.137 0-26.31-21.328-47.637-47.637-47.637-6.132 0-11.618.884-16.488 2.49-14.026 4.625-22.292 18.479-22.164 33.248.052 5.964-1.95 11.978-8.931 15.103-.006.009-.012.017-.018.026-.851 18.313 13.724 35.98 28.547 44.408l.102.031c-11.455.877-23.562 7.502-23.562 7.502" fill="#ffded5"/><path d="m168.64 191.109c-1.414 0-2.785-.752-3.512-2.08-1.062-1.938-.35-4.367 1.588-5.428.379-.209 6.992-3.795 15.223-6.121-12.408-9.91-23.172-25.607-22.387-42.498.039-.844.346-1.654.873-2.312.092-.115.209-.252.314-.355.344-.344.748-.623 1.193-.822 2.85-1.277 6.631-3.85 6.564-11.418-.148-17.219 9.863-32.119 24.912-37.082 5.418-1.785 11.387-2.691 17.74-2.691 28.475 0 51.639 23.164 51.639 51.639 0 22.256-14.381 44.471-34.197 52.822-2.031.861-4.379-.096-5.238-2.133-.859-2.035.096-4.381 2.133-5.238 16.979-7.158 29.303-26.271 29.303-45.451 0-24.062-19.576-43.639-43.639-43.639-5.502 0-10.627.77-15.236 2.289-11.73 3.869-19.533 15.689-19.416 29.414.07 7.967-3.02 13.992-8.971 17.578.479 15.631 13.359 30.99 26.473 38.475 1.422.766 2.305 2.334 2.121 3.979-.213 1.91-1.703 3.414-3.619 3.561-10.473.801-21.832 6.961-21.945 7.021-.61.332-1.268.49-1.916.49zm-5.073-55.966h.039z" fill="#4c241d"/></g><circle cx="184.231" cy="135.487" fill="#4c241d" r="4"/><circle cx="212.172" cy="53.948" fill="#4c241d" r="4.276"/><circle cx="108.172" cy="73.948" fill="#4c241d" r="4.276"/><path d="m51.212 262c-7.719 0-14-6.281-14-14s6.281-14 14-14 14 6.281 14 14-6.281 14-14 14zm0-20c-3.309 0-6 2.691-6 6s2.691 6 6 6 6-2.691 6-6-2.691-6-6-6z" fill="#4c241d"/></g></svg>