<svg id="secure-birth" enable-background="new 0 0 300 300" height="512" viewBox="0 0 300 300" width="512" xmlns="http://www.w3.org/2000/svg"><g><circle cx="114" cy="140" fill="#f9d7f7" r="86"/><g><path d="m116 66v-8.706c0-17.283 14.011-31.294 31.294-31.294h1.412c15.061 0 27.63 10.643 30.614 24.816 2.759 1.315 4.68 4.107 4.68 7.367v11.634c0 2.984-1.614 5.569-4 6.999v33.184h-64c-4.418 0-8-3.582-8-8v-28c0-4.418 3.582-8 8-8z" fill="#ffce56"/><path d="m180 114h-64c-6.617 0-12-5.383-12-12v-28c0-5.215 3.344-9.664 8-11.316v-5.391c0-19.461 15.834-35.293 35.295-35.293h1.412c15.99 0 30.059 10.934 34.113 26.246 3.199 2.262 5.18 5.977 5.18 9.938v11.633c0 3.488-1.461 6.715-4 8.996v31.187c0 2.211-1.791 4-4 4zm-32.705-84c-15.051 0-27.295 12.242-27.295 27.293v8.707c0 2.211-1.791 4-4 4-2.205 0-4 1.793-4 4v28c0 2.207 1.795 4 4 4h60v-29.184c0-1.406.738-2.707 1.945-3.43 1.287-.773 2.055-2.105 2.055-3.57v-11.632c0-1.609-.92-3.051-2.402-3.758-1.125-.535-1.936-1.566-2.191-2.785-2.641-12.539-13.87-21.641-26.7-21.641z" fill="#4c241d"/></g><g><path d="m159.843 38.318c-6.249 14.984-23.823 16.231-31.798 15.977l.293 17.323c.141 8.349 7.147 14.583 15.662 14.382h24v-32c-.104-6.172-3.346-11.94-8.157-15.682z" fill="#ffe8dc"/><path d="m143.514 90.004c-5.1 0-9.926-1.898-13.549-5.379-3.545-3.406-5.543-8-5.627-12.941l-.293-17.324c-.018-1.094.412-2.148 1.193-2.914.777-.77 1.844-1.25 2.934-1.148 6.602.156 22.625-.684 27.98-13.52.48-1.152 1.469-2.012 2.674-2.328 1.207-.324 2.49-.055 3.473.711 5.955 4.629 9.582 11.648 9.701 18.773v32.066c0 2.211-1.791 4-4 4h-24c-.162.004-.324.004-.486.004zm-11.401-31.734.225 13.281c.047 2.793 1.172 5.387 3.17 7.305 2.188 2.105 5.145 3.273 8.398 3.145h20.094v-28.001c-.053-3.164-1.211-6.355-3.223-9.062-7.3 10.589-20.306 12.976-28.664 13.332z" fill="#4c241d"/></g><circle cx="48" cy="98" fill="#4c241d" r="4"/><g><path d="m180.191 216.399c7.809 17.601-4.191 57.601-4.191 57.601h-48c0-28-44-64-13.84-101.22 9.341-11.528 12.159-24.054 9.688-37.19l-1.555-25.563c-.33-5.418 3.975-9.993 9.403-9.993h12.565s-2.421 31.856 33.799 18.055c3.834 4.226 10.399 8.583 13.862 12.047 0 12.542-18.814 13.797-18.814 13.797 1.254 1.254 58.949 43.898-1.254 76.508l-12.542 7.525" fill="#e66353"/><path d="m176 278h-48c-2.209 0-4-1.789-4-4 0-8.82-5.156-19.172-10.617-30.129-10.512-21.102-23.596-47.367-2.33-73.609 8.328-10.277 11.227-21.379 8.863-33.934-.029-.164-.051-.328-.061-.496l-1.555-25.562c-.225-3.676 1.096-7.324 3.621-10.012 2.525-2.684 6.09-4.223 9.775-4.223h12.564c1.113 0 2.176.465 2.934 1.281s1.139 1.91 1.055 3.023c-.006.086-.637 10.277 5.521 14.844 4.592 3.41 12.5 3.117 22.865-.832 1.533-.582 3.277-.168 4.387 1.051 1.947 2.145 4.811 4.438 7.578 6.652 2.305 1.844 4.482 3.586 6.15 5.254.748.75 1.17 1.77 1.17 2.828 0 9.012-6.963 13.855-14.012 16.137 10.432 9.727 22.793 25.094 21.178 42.305-.994 10.578-7.156 20.113-18.365 28.457 6.543 19.504-4.404 56.488-4.891 58.113-.506 1.692-2.064 2.852-3.83 2.852zm0-4h.041zm-44.246-4h41.227c3.115-11.434 8.012-34.926 4.77-48.316-1.281.77-2.613 1.527-3.99 2.273l-12.391 7.438c-1.889 1.141-4.352.523-5.486-1.371-1.137-1.895-.521-4.352 1.373-5.488l12.543-7.523c15.84-8.586 24.309-18.375 25.324-29.18 1.637-17.434-16.195-33.988-23.938-40.293-.502-.41-.809-.68-.904-.777-1.109-1.109-1.469-2.766-.916-4.234s1.912-2.48 3.479-2.586c.133-.008 13.221-1.023 14.9-8.23-1.195-1.051-2.639-2.207-4.141-3.41-2.258-1.809-4.574-3.66-6.594-5.578-12.074 4.121-21.504 3.738-28.053-1.148-6.459-4.824-8.184-12.676-8.604-17.539h-8.656c-1.512 0-2.914.605-3.949 1.707-1.035 1.098-1.555 2.535-1.463 4.043l1.541 25.316c2.697 14.695-.855 28.219-10.559 40.199-18.025 22.242-7.195 43.98 3.277 65.004 5.161 10.357 10.071 20.213 11.21 29.693z" fill="#4c241d"/></g><g fill="#4c241d"><path d="m72 74c-6.617 0-12-5.383-12-12s5.383-12 12-12 12 5.383 12 12-5.383 12-12 12zm0-16c-2.205 0-4 1.793-4 4s1.795 4 4 4 4-1.793 4-4-1.795-4-4-4z"/><path d="m49.656 183.656c-1.023 0-2.047-.391-2.828-1.172l-11.312-11.312c-1.562-1.562-1.562-4.094 0-5.656s4.094-1.562 5.656 0l11.312 11.312c1.562 1.562 1.562 4.094 0 5.656-.781.782-1.804 1.172-2.828 1.172z"/><path d="m38.344 183.656c-1.023 0-2.047-.391-2.828-1.172-1.562-1.562-1.562-4.094 0-5.656l11.312-11.312c1.562-1.562 4.094-1.562 5.656 0s1.562 4.094 0 5.656l-11.312 11.312c-.781.782-1.805 1.172-2.828 1.172z"/></g><g><path d="m127.146 100.034c-3.377 0-6.495 1.807-8.174 4.737l-28.496 49.738c-.779 1.791.013 3.876 1.784 4.698l63.053 27.132 2.508 5.017 22.576 7.525v-5.017l-13.559-12.542 2.396-1.599c1.867-.467 2.822-2.542 1.961-4.264-.51-1.019-1.551-1.663-2.691-1.663h-13.192l-46.169-23.593 15.051-17.559s22.576-12.542 7.525-32.61z" fill="#ffe8dc"/><path d="m180.397 202.883c-.426 0-.852-.066-1.266-.207l-22.576-7.527c-1.006-.332-1.838-1.055-2.312-2.004l-1.854-3.707-61.711-26.555c-3.869-1.793-5.527-6.148-3.873-9.965.059-.137.125-.27.199-.398l28.496-49.738c2.387-4.16 6.848-6.746 11.645-6.746h4.574c1.26 0 2.445.594 3.199 1.602 5.088 6.781 6.943 13.621 5.514 20.324-2.137 10.023-11.07 16.199-13.627 17.781l-11.32 13.211 40.791 20.844h12.229c2.672 0 5.074 1.484 6.27 3.875.955 1.914.99 4.121.096 6.066-.377.82-.898 1.543-1.531 2.145l9.775 9.043c.818.758 1.283 1.824 1.283 2.938v5.02c0 1.285-.617 2.492-1.662 3.246-.691.494-1.511.752-2.339.752zm-19.741-14.797 11.889 3.961-8.424-7.789c-.898-.832-1.367-2.031-1.271-3.254.098-1.223.75-2.332 1.77-3.012l.293-.195h-9.6c-.633 0-1.256-.148-1.82-.438l-46.17-23.594c-1.092-.559-1.867-1.586-2.104-2.789-.238-1.203.09-2.445.887-3.375l15.051-17.559c.309-.363.68-.664 1.094-.895.076-.043 8.707-4.988 10.365-12.898.809-3.852-.191-7.953-2.975-12.215h-2.496c-1.938 0-3.74 1.043-4.703 2.723l-28.074 49.004 62.527 26.902c.867.375 1.574 1.043 1.996 1.887z" fill="#4c241d"/></g><g><path d="m136.736 86v14.034h1.753c3.028 0 5.605 2.212 6.018 5.211 1.158 8.4 6.871 23.011 33.552 12.844-5.06-5.576-8.511-12.133-10.143-15.606-.707-1.504-2.211-2.449-3.873-2.449h-9.749v-14.034z" fill="#ffe8dc"/><path d="m162.137 125.547c-4.441 0-8.297-.961-11.545-2.887-6.949-4.117-9.299-11.445-10.047-16.867-.139-1.004-1.021-1.758-2.055-1.758h-1.754c-2.209 0-4-1.789-4-4v-14.035c0-2.211 1.791-4 4-4h17.559c2.209 0 4 1.789 4 4v10.035h5.75c3.195 0 6.137 1.863 7.492 4.746 1.516 3.227 4.762 9.414 9.486 14.621.889.98 1.234 2.332.928 3.617-.309 1.289-1.23 2.336-2.467 2.809-6.507 2.481-12.304 3.719-17.347 3.719zm-21.401-29.258c3.994.918 7.156 4.23 7.734 8.41.508 3.68 1.994 8.59 6.199 11.078 3.775 2.242 9.473 2.344 16.65.34-3.379-4.641-5.75-9.223-7.023-11.934l-10.002-.148c-2.209 0-4-1.789-4-4v-10.035h-9.559v6.289z" fill="#4c241d"/></g><g><path d="m236 33.208c-11.415 14.097-32 15.2-32 15.2 5.818 45.037 32 51.47 32 51.47s26.182-6.434 32-51.47c0-.001-21.472-1.104-32-15.2z" fill="#fff"/><path d="m236 103.879c-.32 0-.641-.039-.955-.117-1.178-.289-28.912-7.629-35.012-54.844-.143-1.102.184-2.211.893-3.066s1.744-1.375 2.854-1.438c.189-.012 18.99-1.223 29.111-13.723.777-.961 1.941-1.484 3.188-1.484 1.234.025 2.389.617 3.127 1.605 9.295 12.449 28.805 13.59 29 13.598 1.113.059 2.152.578 2.865 1.434.715.855 1.039 1.969.896 3.074-6.1 47.215-33.834 54.555-35.012 54.844-.314.078-.635.117-.955.117zm-27.447-51.992c5.562 33.734 23.049 42.184 27.451 43.797 4.354-1.594 21.867-10.023 27.439-43.773-6.49-1.008-18.828-4.004-27.533-12.715-9.035 8.652-21.015 11.663-27.357 12.691z" fill="#4c241d"/></g><path d="m233.994 79.977c-1.18 0-2.301-.52-3.062-1.426l-6.299-7.496c-1.422-1.691-1.201-4.215.488-5.637 1.693-1.418 4.217-1.203 5.637.488l3.119 3.711 10.967-14.074c1.361-1.742 3.877-2.051 5.615-.699 1.742 1.359 2.055 3.871.697 5.613l-14.006 17.977c-.742.953-1.875 1.52-3.082 1.543-.025 0-.048 0-.074 0z" fill="#a9ba5a"/></g></svg>