<svg id="happy-mom" enable-background="new 0 0 300 300" height="512" viewBox="0 0 300 300" width="512" xmlns="http://www.w3.org/2000/svg"><g><circle cx="128.672" cy="124" fill="#f9d7f7" r="86"/><g><path d="m186.672 262h-24l-8-92h40z" fill="#9dc1e4"/><path d="m186.672 266h-24c-2.074 0-3.805-1.586-3.984-3.652l-8-92c-.098-1.117.279-2.223 1.035-3.051.758-.828 1.828-1.297 2.949-1.297h40c1.121 0 2.191.469 2.949 1.297.756.828 1.133 1.934 1.035 3.051l-8 92c-.18 2.066-1.91 3.652-3.984 3.652zm-20.332-8h16.664l7.305-84h-31.273z" fill="#4c241d"/></g><circle cx="106.672" cy="30" fill="#4c241d" r="4"/><g><path d="m206.672 66v-8.706c0-17.283-14.011-31.294-31.294-31.294h-1.412c-15.061 0-27.63 10.643-30.614 24.816-2.759 1.315-4.68 4.107-4.68 7.367v11.634c0 2.984 1.614 5.569 4 6.999v33.184h64c4.418 0 8-3.582 8-8v-28c0-4.418-3.582-8-8-8z" fill="#6b4f5b"/><path d="m206.672 114h-64c-2.209 0-4-1.789-4-4v-31.188c-2.539-2.281-4-5.508-4-8.996v-11.632c0-3.961 1.98-7.676 5.18-9.934 4.054-15.316 18.122-26.25 34.115-26.25h1.412c19.461 0 35.293 15.832 35.293 35.293v5.391c4.656 1.652 8 6.102 8 11.316v28c0 6.617-5.383 12-12 12zm-60-8h60c2.205 0 4-1.793 4-4v-28c0-2.207-1.795-4-4-4-2.209 0-4-1.789-4-4v-8.707c0-15.051-12.244-27.293-27.293-27.293h-1.412c-12.832 0-24.061 9.102-26.701 21.641-.256 1.219-1.066 2.25-2.191 2.785-1.482.707-2.402 2.148-2.402 3.758v11.633c0 1.465.768 2.797 2.055 3.57 1.207.723 1.945 2.023 1.945 3.43v29.183z" fill="#4c241d"/></g><g><path d="m94.921 67.422c.433-1.35 1.343-2.554 2.659-3.332 2.852-1.687 6.532-.741 8.219 2.111l21.636 36.591 25.15-12.942c2.945-1.517 6.565-.357 8.08 2.589 1.517 2.947.358 6.563-2.589 8.08l-30.18 15.53c-2.824 1.453-6.293.455-7.91-2.281l-24.517-41.459c-.908-1.537-1.053-3.312-.548-4.887z" fill="#ffded5"/><path d="m125.164 120.715c-3.434 0-6.766-1.77-8.623-4.91l-24.516-41.461c-1.451-2.453-1.785-5.422-.916-8.141.002 0 .002-.004.002-.004.748-2.336 2.324-4.309 4.436-5.555 2.291-1.355 4.984-1.738 7.574-1.078 2.586.664 4.76 2.297 6.121 4.594l19.717 33.352 21.795-11.219c2.373-1.219 5.082-1.441 7.625-.633 2.545.816 4.621 2.574 5.844 4.953 1.221 2.371 1.445 5.082.629 7.625-.814 2.543-2.572 4.617-4.947 5.84l-30.18 15.531c-1.458.746-3.02 1.106-4.561 1.106zm-26.434-52.074c-.104.32-.217.961.182 1.633l24.516 41.461c.537.91 1.697 1.246 2.637.758l30.18-15.531c.643-.328.896-.871.99-1.164.094-.297.203-.883-.127-1.523-.33-.645-.875-.898-1.168-.992-.297-.098-.887-.203-1.521.125l-25.152 12.945c-1.881.949-4.193.301-5.273-1.523l-21.637-36.594c-.559-.945-1.789-1.258-2.738-.703-.543.319-.783.779-.889 1.108z" fill="#4c241d"/></g><g><path d="m253.043 67.422c-.433-1.35-1.343-2.554-2.659-3.332-2.852-1.687-6.532-.741-8.219 2.111l-21.636 36.591-25.15-12.942c-2.945-1.517-6.565-.357-8.08 2.589-1.517 2.947-.358 6.563 2.589 8.08l30.18 15.53c2.824 1.453 6.293.455 7.91-2.281l24.516-41.461c.909-1.535 1.053-3.31.549-4.885z" fill="#ffded5"/><path d="m222.799 120.715c-1.541 0-3.104-.359-4.561-1.105l-30.18-15.531c-2.375-1.223-4.133-3.297-4.947-5.84s-.592-5.254.631-7.629c1.221-2.375 3.297-4.133 5.842-4.949 2.547-.809 5.256-.586 7.629.637l21.793 11.215 19.715-33.348c1.361-2.301 3.535-3.934 6.121-4.598 2.592-.66 5.279-.281 7.578 1.082 2.107 1.242 3.684 3.215 4.432 5.551 0 0 0 .004.002.004.869 2.719.535 5.688-.916 8.141l-24.516 41.461c-1.858 3.139-5.192 4.909-8.623 4.909zm-30.162-27.531c-.256 0-.469.051-.613.098-.293.094-.838.348-1.166.988-.332.641-.223 1.23-.129 1.527.096.293.35.836.99 1.164l30.18 15.531c.936.488 2.098.152 2.637-.758l24.516-41.461c.398-.672.285-1.312.182-1.633-.105-.328-.346-.789-.883-1.105-.957-.574-2.182-.25-2.742.703l-21.635 36.59c-1.084 1.824-3.398 2.484-5.273 1.523l-25.15-12.941c-.331-.172-.647-.226-.914-.226z" fill="#4c241d"/></g><g><path d="m194.515 131.643v-5.783c3.361-.661 6.031-3.947 6.405-8.162l1.661-10.755c.991-11.187-6.257-20.943-15.559-20.943h-24.701c-9.302 0-16.55 9.756-15.559 20.943l1.661 10.755c.373 4.215 3.043 7.502 6.405 8.162v5.783c-9.731 6.086-16.157 16.508-16.157 28.357 0 18.778 16.118 30 36 30s36-11.222 36-30c.001-11.849-6.425-22.271-16.156-28.357z" fill="#ffce56"/><path d="m174.672 194c-23.551 0-40-13.98-40-34 0-12.09 5.998-23.332 16.156-30.5v-.926c-3.5-2-5.982-5.938-6.389-10.523l-1.631-10.5c-.67-7.469 1.559-14.438 6.082-19.379 3.643-3.98 8.412-6.172 13.432-6.172h24.699c5.02 0 9.789 2.191 13.432 6.172 4.523 4.941 6.752 11.91 6.113 19.121l-1.693 11.016c-.381 4.387-2.857 8.281-6.357 10.27v.922c10.158 7.168 16.156 18.41 16.156 30.5 0 20.019-16.45 33.999-40 33.999zm-12.35-104c-2.748 0-5.422 1.27-7.529 3.57-2.969 3.242-4.482 8.109-4.047 13.02l1.631 10.5c.238 2.594 1.58 4.523 3.223 4.844 1.875.371 3.229 2.016 3.229 3.926v5.785c0 1.379-.711 2.66-1.879 3.391-8.939 5.594-14.277 14.926-14.277 24.965 0 17.961 16.072 26 32 26s32-8.039 32-26c0-10.039-5.338-19.371-14.277-24.965-1.168-.73-1.879-2.012-1.879-3.391v-5.785c0-1.91 1.354-3.555 3.229-3.926 1.643-.32 2.984-2.25 3.191-4.586l1.693-11.016c.404-4.652-1.109-9.52-4.078-12.762-2.107-2.301-4.781-3.57-7.529-3.57z" fill="#4c241d"/></g><g><path d="m174.672 102c-6.627 0-12-5.373-12-12v-8h24v8c0 6.627-5.373 12-12 12z" fill="#ffe8dc"/><path d="m174.672 106c-8.822 0-16-7.176-16-16v-8c0-2.211 1.791-4 4-4h24c2.209 0 4 1.789 4 4v8c0 8.824-7.178 16-16 16zm-8-20v4c0 4.41 3.588 8 8 8s8-3.59 8-8v-4z" fill="#4c241d"/></g><g><path d="m186.514 34.318c-6.249 14.984-23.823 16.231-31.798 15.977l.293 17.323c.141 8.349 7.146 14.583 15.662 14.383h24v-32.001c-.104-6.172-3.345-11.94-8.157-15.682z" fill="#ffe8dc"/><path d="m170.185 86.004c-5.1 0-9.926-1.898-13.549-5.379-3.545-3.406-5.543-8-5.627-12.941l-.293-17.324c-.018-1.094.412-2.148 1.193-2.914.779-.77 1.861-1.25 2.934-1.148 6.625.156 22.627-.684 27.98-13.52.48-1.152 1.469-2.012 2.674-2.328 1.205-.324 2.49-.055 3.473.711 5.955 4.629 9.582 11.648 9.701 18.773v32.066c0 2.211-1.791 4-4 4h-24c-.161.004-.324.004-.486.004zm-11.4-31.734.225 13.281c.047 2.793 1.172 5.387 3.17 7.305 2.188 2.105 5.172 3.273 8.398 3.145h20.094v-28.001c-.053-3.164-1.211-6.355-3.223-9.062-7.301 10.589-20.307 12.976-28.664 13.332z" fill="#4c241d"/></g><path d="m174.672 266c-2.209 0-4-1.789-4-4v-72c0-2.211 1.791-4 4-4s4 1.789 4 4v72c0 2.211-1.791 4-4 4z" fill="#4c241d"/><g><path d="m190.672 274h-32v-4c0-4.418 3.582-8 8-8h16c4.418 0 8 3.582 8 8z" fill="#6b4f5b"/><path d="m190.672 278h-32c-2.209 0-4-1.789-4-4v-4c0-6.617 5.383-12 12-12h16c6.617 0 12 5.383 12 12v4c0 2.211-1.791 4-4 4zm-28-8h24c0-2.207-1.795-4-4-4h-16c-2.205 0-4 1.793-4 4z" fill="#4c241d"/></g><g fill="#4c241d"><path d="m250.672 278h-152c-2.209 0-4-1.789-4-4s1.791-4 4-4h152c2.209 0 4 1.789 4 4s-1.791 4-4 4z"/><path d="m66.672 53.512c-2.209 0-4-1.789-4-4v-5.66c0-2.211 1.791-4 4-4s4 1.789 4 4v5.66c0 2.211-1.791 4-4 4z"/><path d="m66.672 76.148c-2.209 0-4-1.789-4-4v-5.66c0-2.211 1.791-4 4-4s4 1.789 4 4v5.66c0 2.211-1.791 4-4 4z"/><path d="m58.183 62h-5.66c-2.209 0-4-1.789-4-4s1.791-4 4-4h5.66c2.209 0 4 1.789 4 4s-1.791 4-4 4z"/><path d="m80.82 62h-5.66c-2.209 0-4-1.789-4-4s1.791-4 4-4h5.66c2.209 0 4 1.789 4 4s-1.791 4-4 4z"/></g><g><path d="m182.672 142.542c-3.078 0-5.876 1.2-8 3.157-2.124-1.957-4.922-3.157-8-3.157-6.628 0-12 5.518-12 12.326s14 18.489 20 22.597c6-4.109 20-15.79 20-22.597s-5.373-12.326-12-12.326z" fill="#f96e43"/><path d="m174.672 181.465c-.789 0-1.578-.234-2.26-.699-.219-.148-21.74-15.016-21.74-25.898 0-9 7.178-16.324 16-16.324 2.83 0 5.582.766 8 2.195 2.418-1.43 5.17-2.195 8-2.195 8.822 0 16 7.324 16 16.324 0 10.883-21.521 25.75-21.74 25.898-.682.464-1.471.699-2.26.699zm-8-34.922c-4.412 0-8 3.734-8 8.324 0 3.426 8.277 11.91 16 17.68 7.723-5.77 16-14.254 16-17.68 0-4.59-3.588-8.324-8-8.324-1.941 0-3.82.746-5.291 2.098-1.531 1.414-3.887 1.414-5.418 0-1.471-1.352-3.35-2.098-5.291-2.098z" fill="#4c241d"/></g><g fill="#4c241d"><path d="m114.672 162h-12c-2.209 0-4-1.789-4-4s1.791-4 4-4h12c2.209 0 4 1.789 4 4s-1.791 4-4 4z"/><path d="m118.672 146c-1.023 0-2.047-.391-2.828-1.172l-8-8c-1.562-1.562-1.562-4.094 0-5.656s4.094-1.562 5.656 0l8 8c1.562 1.562 1.562 4.094 0 5.656-.781.781-1.805 1.172-2.828 1.172z"/><path d="m110.672 186c-1.023 0-2.047-.391-2.828-1.172-1.562-1.562-1.562-4.094 0-5.656l8-8c1.562-1.562 4.094-1.562 5.656 0s1.562 4.094 0 5.656l-8 8c-.781.781-1.805 1.172-2.828 1.172z"/><path d="m246.672 162h-12c-2.209 0-4-1.789-4-4s1.791-4 4-4h12c2.209 0 4 1.789 4 4s-1.791 4-4 4z"/><path d="m230.672 146c-1.023 0-2.047-.391-2.828-1.172-1.562-1.562-1.562-4.094 0-5.656l8-8c1.562-1.562 4.094-1.562 5.656 0s1.562 4.094 0 5.656l-8 8c-.781.781-1.805 1.172-2.828 1.172z"/><path d="m238.672 186c-1.023 0-2.047-.391-2.828-1.172l-8-8c-1.562-1.562-1.562-4.094 0-5.656s4.094-1.562 5.656 0l8 8c1.562 1.562 1.562 4.094 0 5.656-.781.781-1.805 1.172-2.828 1.172z"/></g></g></svg>