<svg id="Capa_1" enable-background="new 0 0 512 512" height="512" viewBox="0 0 512 512" width="512" xmlns="http://www.w3.org/2000/svg"><path d="m278.933 442.08-10 39.02-29.15 11.75 1.78-72.72z" fill="#f1d0a5"/><path d="m239.783 424.014h13.526v60.301h-13.526z" fill="#f1b986"/><path d="m294.394 504.5h-54.611v-23.402h31.21c12.924 0 23.401 10.478 23.401 23.402z" fill="#70c6da"/><path d="m249.79 442.08-10 39.02-29.15 11.75 1.78-72.72z" fill="#f1d0a5"/><path d="m210.64 424.014h13.526v60.301h-13.526z" fill="#f1b986"/><path d="m265.252 504.5h-54.612v-23.402h31.21c12.924 0 23.402 10.478 23.402 23.402z" fill="#70c6da"/><path d="m404.72 252.53s-27.93 30.8-97.61 23.95h-124.45c-69.69 6.85-97.62-23.95-97.62-23.95 16.46-16.46 15.96-51.87 15.96-114.72s24.94-130.31 143.88-130.31 143.88 67.46 143.88 130.31-.5 98.26 15.96 114.72z" fill="#e27d47"/><path d="m196.86 136.03v140.45h-14.2c-69.69 6.85-97.62-23.95-97.62-23.95 16.46-16.46 15.96-51.87 15.96-114.72s24.94-130.31 143.88-130.31c-55.09 0-48.02 72.88-48.02 128.53z" fill="#dd542e"/><path d="m339.17 442.08h-160.62s19.95-129.96 5.26-181.81l54.61.52 62.84.6c12.97 30.07 0 50.73 0 50.73s46.39 2.5 57.36 52.38c10.98 49.88-19.45 77.58-19.45 77.58z" fill="#8078bc"/><path d="m278.93 442.08h-100.38s19.95-129.96 5.26-181.81l54.61.52c5.26 8.29 28.54 48.45 8.97 82.26.001 0-22.948 60.856 31.54 99.03z" fill="#5e54ac"/><path d="m306.069 277.241c-35.94 25.68-83.49-13.95-83.49-13.95l-1.28-2.66 79.96.76c2.43 5.64 3.95 10.94 4.81 15.85z" fill="#f1b986"/><path d="m347.78 207.68c-1.51 29.69-25.27 53.33-54.98 54.73-23.37 1.1-46.74 1.4-70.12.89-.03 0-.07 0-.1-.01-8.54-.18-17.08-.48-25.62-.88-29.7-1.4-53.46-25.04-54.98-54.73-1.09-21.16-1.2-42.31-.36-63.47h.01s24.41-1.24 55.23-8.18c27.39-6.16 59.84-16.83 84.71-35.13 0 0 25.94 43.31 66.57 43.31.85 21.16.73 42.31-.36 63.47z" fill="#f1d0a5"/><path d="m222.58 263.29c-8.54-.18-17.08-.48-25.62-.88-29.7-1.4-53.46-25.04-54.98-54.73-1.09-21.16-1.2-42.31-.36-63.47h.01s24.41-1.24 55.23-8.18v.01c-6.88 59 .08 126.19 25.72 127.25z" fill="#f1b986"/><ellipse cx="309.063" cy="192.677" fill="#eaac9d" rx="15.297" ry="9.644"/><ellipse cx="180.702" cy="192.677" fill="#eaac9d" rx="15.297" ry="9.644"/><path d="m287.31 347.006c-4.988-14.964-37.91-12.969-37.91-12.969-21.696 0-30.753-16.249-31.847-35.192-.549-9.509-8.462-16.932-17.983-17.182-10.415-.274-19.006 8.094-19.006 18.513v16.902c10.622 55.597 68.836 46.888 68.836 46.888s42.898-1.996 37.91-16.96z" fill="#f1d0a5"/><path d="m286.34 353.305c-6.83 9.25-36.94 10.66-36.94 10.66s-58.22 8.7-68.84-46.89v-16.9c0-9.74 7.5-17.68 16.98-18.46-2.51 3.15-4 7.14-4 11.48v16.91c10.62 55.59 68.83 46.88 68.83 46.88s13.09-.61 23.97-3.68z" fill="#f1b986"/><ellipse cx="349.153" cy="342.323" fill="#f1d0a5" rx="13.958" ry="21.666" transform="matrix(.866 -.5 .5 .866 -124.384 220.439)"/><path d="m272.76 202.23c1.776-3.742.183-8.215-3.56-9.991-3.739-1.775-8.215-.183-9.991 3.56-2.613 5.504-8.236 9.061-14.326 9.061s-11.713-3.556-14.325-9.06c-1.776-3.742-6.25-5.337-9.991-3.56-3.742 1.776-5.336 6.249-3.561 9.991 5.083 10.709 16.024 17.629 27.876 17.629 11.853-.001 22.795-6.921 27.878-17.63z"/><path d="m196.865 149.833c-5.196 0-9.423 6.285-9.423 14.01s4.227 14.01 9.423 14.01 9.423-6.285 9.423-14.01c0-7.726-4.227-14.01-9.423-14.01z"/><path d="m292.902 177.853c5.196 0 9.424-6.285 9.424-14.01s-4.228-14.01-9.424-14.01c-5.195 0-9.423 6.285-9.423 14.01s4.228 14.01 9.423 14.01z"/><path d="m353.469 317.45c-6.234-3.205-12.743-3.494-18.03-.847-8.621-5.703-17.252-8.712-23.635-10.28 1.663-5.385 3.084-12.796 2.641-21.748 4.284.263 8.427.402 12.395.402 57.843 0 82.315-26.174 83.436-27.409 2.688-2.963 2.576-7.513-.252-10.341-13.785-13.785-13.777-47.748-13.765-104.016l.001-5.401c0-39.458-9.802-70.947-29.133-93.593-25.045-29.34-66.175-44.217-122.247-44.217-40.031 0-72.634 7.607-96.904 22.611-3.523 2.178-4.614 6.8-2.436 10.323s6.799 4.614 10.323 2.436c21.864-13.517 51.814-20.37 89.017-20.37 91.77 0 136.38 40.172 136.38 122.81l-.001 5.397c-.013 55.679-.021 88.968 13.025 108.375-3.455 2.537-8.787 5.889-16.164 9.015-22.526 9.545-47.696 10.204-66.125 8.781-.256-.942-.535-1.894-.836-2.856 24.782-8.37 42.718-31.069 44.117-58.454 1.093-21.346 1.212-42.932.356-64.157-.162-4.021-3.47-7.198-7.494-7.198-14.775 0-29.278-6.517-43.107-19.369-10.753-9.993-16.967-20.209-17.022-20.302-1.085-1.813-2.885-3.083-4.956-3.5-2.071-.416-4.221.059-5.924 1.312-50.103 36.868-134.04 41.768-135.853 41.866-3.881.18-6.99 3.3-7.146 7.193-.851 21.316-.731 42.901.357 64.156 1.387 26.996 18.846 49.426 43.078 58.076.239 1.03.468 2.093.687 3.195-31.821 2.551-53.706-3.276-66.611-8.743-7.382-3.128-12.716-6.482-16.167-9.014 13.046-19.407 13.039-52.697 13.026-108.376l-.001-5.397c0-36.355 8.87-64.882 26.364-84.789 2.734-3.112 2.429-7.85-.683-10.585-3.111-2.734-7.85-2.428-10.584.683-19.97 22.725-30.096 54.584-30.096 94.691l.001 5.401c.013 56.268.021 90.231-13.764 104.016-2.829 2.828-2.939 7.378-.252 10.341 1.12 1.235 25.584 27.412 83.443 27.409 4.914 0 10.083-.197 15.488-.606-3.444 4.492-5.351 10.011-5.351 15.805v9.021c0 11.177 2.712 21.955 7.844 31.17.059.106.122.204.182.309-2.239 49.587-9.876 99.758-9.954 100.266-.332 2.162.297 4.362 1.722 6.022s3.503 2.616 5.691 2.616h24.591v54.92c0 4.142 3.358 7.5 7.5 7.5h83.75c4.143 0 7.5-3.358 7.5-7.5 0-14.496-10.037-26.687-23.525-30.004l6.386-24.916h14.268c4.143 0 7.5-3.358 7.5-7.5s-3.357-7.5-7.5-7.5h-111.82c1.976-14.34 5.835-44.704 7.976-77.143 15.317 12.384 34.228 14.547 45.525 14.547 4.773 0 8.188-.385 9.395-.543 8.455-.419 34.729-2.647 42.602-14.122 2.585-3.768 3.199-8.273 1.729-12.684-6.402-19.208-38.241-18.495-45.234-18.098-18.416-.113-23.284-15.063-24.119-27.612-.794-11.937-9.267-21.895-20.604-24.216-3.402-.696-6.837-.719-10.133-.111-.238-1.685-.492-3.323-.766-4.906 1.005.093 2.017.167 3.036.215 7.748.366 15.522.639 23.309.828 4.315 3.28 14.771 10.656 28.095 16.104 10.684 4.368 20.895 6.546 30.433 6.546 7.479 0 14.542-1.344 21.091-4.017-.305 11.421-4.371 18.347-4.625 18.767-.014.023-3.374 3.808-14.267 3.808-4.143 0-7.5 3.358-7.5 7.5s3.357 7.5 7.5 7.5c12.691 0 19.774-3.674 23.55-6.908 4.573.767 13.232 2.872 22.041 8.468-.426 1.614-.691 3.328-.779 5.124-.306 6.284 1.511 13.183 5.116 19.427s8.672 11.267 14.267 14.144c2.373 1.22 4.786 2.008 7.157 2.383 6.634 36.15-10.143 58.497-15.988 65.002h-7.007c-4.143 0-7.5 3.358-7.5 7.5s3.357 7.5 7.5 7.5h10.17c1.867 0 3.668-.697 5.049-1.954 1.35-1.229 32.428-30.237 22.283-82.051 3.784-3.387 6.057-8.519 6.351-14.554.306-6.283-1.511-13.183-5.116-19.427-3.605-6.247-8.672-11.271-14.268-14.147zm-113.688 179.55h-21.64v-8.402h21.64v.002h.01 2.109c6.037.018 11.294 3.416 13.97 8.4zm45.227 0h-13.181c-.75-2.996-1.936-5.82-3.491-8.4h.594 2.06c6.057 0 11.334 3.404 14.018 8.4zm-21.898-23.4h-13.655l6.156-24.02h13.655zm-23.329-24.02h.346l-6.156 24.018h-15.83v-24.018zm-40.717-160.424c.788 0 1.59.082 2.396.247 4.744.971 8.299 5.296 8.646 10.516 1.733 26.06 16.422 41.618 39.294 41.618.146 0 .3-.005.446-.013 17.385-1.019 28.57 3.697 30.257 7.613-2.529 2.899-16.128 6.629-31.051 7.337-.255.012-.509.037-.761.074-.095.014-9.827 1.358-21.365-.924-15.175-3.002-26.249-10.591-32.913-22.556-3.892-6.988-5.949-15.243-5.949-23.871v-9.021c0-3.324 1.48-6.438 4.06-8.544 1.997-1.63 4.4-2.476 6.94-2.476zm-49.597-81.855c-.951-18.584-1.146-37.427-.583-56.111 8.734-.778 25.005-2.622 44.434-6.707 35.231-7.407 64.229-18.535 86.344-33.12 3.284 4.427 8.294 10.541 14.833 16.664 14.386 13.474 30.288 21.424 46.389 23.269.563 18.576.365 37.383-.588 56.005-1.324 25.922-21.894 46.394-47.846 47.62-31.56 1.491-63.567 1.491-95.136 0-25.946-1.225-46.516-21.698-47.847-47.62zm99.875 63.713c14.642-.063 29.275-.422 43.814-1.109 1.091-.052 2.174-.132 3.249-.235.46 1.366.87 2.707 1.217 4.015-15.895 8.6-34.297 3.854-48.28-2.671zm94.218 74.538c-2.15-3.725-3.289-7.805-3.124-11.196.104-2.131.73-3.779 1.634-4.301.301-.173.692-.258 1.152-.258.925 0 2.122.342 3.389.994 3.02 1.552 5.984 4.579 8.135 8.303 2.15 3.725 3.289 7.806 3.124 11.197-.104 2.131-.729 3.779-1.634 4.301-.903.522-2.644.24-4.541-.736-3.018-1.553-5.984-4.579-8.135-8.304z"/><path d="m397.896 280.753c-3.551-2.131-8.159-.979-10.29 2.572l-11.972 19.952c-2.131 3.552-.979 8.159 2.573 10.29 1.208.725 2.538 1.07 3.852 1.07 2.548 0 5.032-1.299 6.438-3.642l11.972-19.952c2.131-3.552.979-8.159-2.573-10.29z"/><path d="m434.188 320.106c-1.101-3.993-5.229-6.338-9.224-5.236l-28.931 7.981c-3.993 1.102-6.337 5.231-5.235 9.224.917 3.326 3.935 5.508 7.226 5.508.66 0 1.331-.088 1.998-.272l28.931-7.981c3.993-1.101 6.337-5.231 5.235-9.224z"/><path d="m420.65 359.997-20.95-7.981c-3.871-1.473-8.204.468-9.679 4.339s.468 8.204 4.339 9.678l20.95 7.981c.879.334 1.781.493 2.669.493 3.021 0 5.87-1.84 7.01-4.832 1.475-3.87-.468-8.203-4.339-9.678z"/></svg>