<svg id="pregnant-shilloutet" enable-background="new 0 0 300 300" height="512" viewBox="0 0 300 300" width="512" xmlns="http://www.w3.org/2000/svg"><g><circle cx="132.173" cy="126" fill="#f9d7f7" r="86"/><circle cx="66.173" cy="84" fill="#4c241d" r="4"/><g><path d="m219.465 233.555c6.708 9.548 6.708 34.445 6.708 34.445h-104c-44-36-36.133-78.534-8-104 17.541-15.878 19.389-38.356 15.449-59.302l-2.48-40.763c-.525-8.64 6.34-15.935 14.995-15.935h20.036s-3.86 50.797 53.895 28.791c6.114 6.738 16.582 13.686 22.105 19.209 0 20-30 22-30 22 2 2 94 70-2 122l-20 12" fill="#9dc1e4"/><path d="m226.173 272h-104c-.924 0-1.818-.32-2.533-.904-20.742-16.971-31.98-36.891-32.498-57.602-.479-19.184 8.168-37.812 24.348-52.459 13.98-12.658 18.76-31.363 14.201-55.598-.031-.164-.051-.33-.061-.498l-2.48-40.764c-.318-5.213 1.555-10.385 5.133-14.189 3.58-3.805 8.631-5.986 13.854-5.986h20.037c1.113 0 2.176.465 2.934 1.281s1.139 1.912 1.055 3.021c-.012.168-1.137 17.666 9.738 25.75 8.121 6.033 21.15 5.707 38.744-1 1.533-.58 3.279-.168 4.387 1.051 3.232 3.564 7.877 7.279 12.367 10.871 3.619 2.896 7.039 5.633 9.604 8.197.75.75 1.172 1.768 1.172 2.828 0 15.881-14.812 22.129-24.82 24.537 16.816 14.896 38.908 40.172 36.256 68.432-1.551 16.521-11.453 31.453-29.498 44.547 5.881 11.145 6.062 31.988 6.062 34.484-.002 2.21-1.793 4.001-4.002 4.001zm-102.558-8h98.463c-.314-7.354-1.479-19.309-4.637-25.965-2.943 1.869-6.066 3.695-9.363 5.482l-19.846 11.912c-1.895 1.133-4.352.525-5.488-1.371-1.137-1.895-.523-4.352 1.371-5.488l20-12c25.912-14.039 39.832-30.277 41.529-48.35 2.717-28.941-26.395-56.02-39.037-66.318-.697-.568-1.127-.939-1.262-1.074-1.109-1.107-1.465-2.762-.916-4.23.551-1.469 1.908-2.48 3.473-2.588.254-.018 24.492-1.867 26.18-16.389-2.127-1.955-4.84-4.125-7.682-6.4-3.961-3.168-8.035-6.428-11.404-9.771-19.121 6.816-33.889 6.477-43.912-1.01-10.63-7.936-12.632-21.518-12.924-28.44h-16.023c-3.07 0-5.922 1.232-8.027 3.469-2.104 2.236-3.16 5.156-2.975 8.223l2.465 40.516c5.027 27.037-.605 48.15-16.742 62.758-14.424 13.059-22.137 29.512-21.717 46.33.448 17.954 10.286 35.462 28.474 50.704z" fill="#4c241d"/></g><g fill="#4c241d"><path d="m90.173 60c-6.617 0-12-5.383-12-12s5.383-12 12-12 12 5.383 12 12-5.383 12-12 12zm0-16c-2.205 0-4 1.795-4 4s1.795 4 4 4 4-1.795 4-4-1.795-4-4-4z"/><path d="m67.829 169.656c-1.023 0-2.047-.391-2.828-1.172l-11.312-11.312c-1.562-1.562-1.562-4.094 0-5.656s4.094-1.562 5.656 0l11.312 11.312c1.562 1.562 1.562 4.094 0 5.656-.781.782-1.804 1.172-2.828 1.172z"/><path d="m56.517 169.656c-1.023 0-2.047-.391-2.828-1.172-1.562-1.562-1.562-4.094 0-5.656l11.312-11.312c1.562-1.562 4.094-1.562 5.656 0s1.562 4.094 0 5.656l-11.312 11.312c-.781.782-1.805 1.172-2.828 1.172z"/></g><g><path d="m134.88 48c-5.385 0-10.358 2.882-13.035 7.554l-45.44 79.312c-1.242 2.856.021 6.18 2.846 7.492l102.922 45.642 4 8 36 12v-8l-28-20 10.199-2.55c2.977-.744 4.499-4.054 3.127-6.799-.813-1.625-2.473-2.652-4.29-2.652h-21.035l-76-40 24-28s36-20 12-52h-7.294z" fill="#ffe8dc"/><path d="m222.173 212c-.426 0-.852-.068-1.266-.205l-36-12c-1.006-.336-1.838-1.057-2.312-2.006l-3.357-6.715-101.608-45.06c-4.896-2.271-7.02-7.857-4.893-12.744.059-.135.125-.266.197-.393l45.439-79.311c3.383-5.9 9.707-9.566 16.506-9.566h7.293c1.26 0 2.445.592 3.199 1.6 7.684 10.242 10.498 20.502 8.367 30.49-3.32 15.576-17.658 25.025-20.965 27.021l-20.301 23.684 70.689 37.205h20.047c3.354 0 6.369 1.863 7.869 4.863 1.199 2.4 1.244 5.172.123 7.607-1.119 2.438-3.254 4.209-5.855 4.861l-1.797.449 20.949 14.963c1.053.752 1.676 1.965 1.676 3.256v8c0 1.285-.617 2.492-1.662 3.244-.689.499-1.51.757-2.338.757zm-33.164-19.271 29.164 9.723v-.393l-26.324-18.803c-1.27-.908-1.896-2.469-1.605-4.002s1.447-2.756 2.959-3.135l10.199-2.549c.307-.076.457-.281.531-.441.072-.158.129-.406-.012-.689-.133-.266-.414-.439-.713-.439h-21.035c-.648 0-1.289-.158-1.863-.461l-76-40c-1.076-.566-1.838-1.592-2.066-2.789-.229-1.195.1-2.43.893-3.354l24-28c.305-.355.678-.66 1.088-.889.148-.084 14.811-8.443 17.701-22.131 1.506-7.125-.445-14.645-5.799-22.377h-5.246c-3.939 0-7.605 2.125-9.564 5.543l-45.299 79.064c-.271.822.117 1.75.918 2.121l102.859 45.615c.85.377 1.541 1.037 1.957 1.867z" fill="#4c241d"/></g><g><path d="m150.173 32v16h2.796c4.828 0 8.938 3.527 9.597 8.31 1.847 13.394 10.956 36.692 53.502 20.481-8.068-8.892-13.571-19.347-16.174-24.886-1.127-2.398-3.526-3.905-6.176-3.905h-15.545v-16" fill="#ffe8dc"/><path d="m190.685 86.309c-6.648 0-12.396-1.422-17.203-4.27-10.266-6.082-13.756-17.051-14.879-25.182-.381-2.77-2.805-4.857-5.635-4.857h-2.795c-2.209 0-4-1.791-4-4v-16c0-2.209 1.791-4 4-4s4 1.791 4 4v12.053c6.277.555 11.484 5.404 12.355 11.711.881 6.387 3.51 14.936 11.031 19.393 7.281 4.312 17.936 4.236 31.725-.213-6.361-8.102-10.77-16.568-13.01-21.338-.467-.99-1.445-1.605-2.557-1.605h-15.545c-2.209 0-4-1.791-4-4v-16.001c0-2.209 1.791-4 4-4s4 1.791 4 4v12h11.545c4.18 0 8.025 2.436 9.797 6.203 2.475 5.266 7.783 15.375 15.516 23.9.889.979 1.234 2.334.928 3.619-.309 1.285-1.23 2.336-2.467 2.807-10.111 3.852-19.068 5.78-26.806 5.78z" fill="#4c241d"/></g><g fill="#4c241d"><path d="m198.72 84.961c-1.412 0-2.781-.748-3.51-2.074-2.098-3.818-3.637-6.854-4.699-9.279-.889-2.023.031-4.383 2.055-5.27 2.023-.885 4.383.033 5.27 2.055.969 2.205 2.402 5.033 4.387 8.643 1.064 1.936.357 4.367-1.58 5.432-.612.335-1.273.493-1.923.493z"/><path d="m187.259 117.705c-7.299 0-13.311-1.531-13.879-1.68-2.135-.562-3.408-2.746-2.85-4.881s2.742-3.406 4.881-2.857c.246.064 23.836 6.027 30.039-7.227-1.363-2.578-3.234-5.84-5.193-9.256-1.676-2.92-3.432-5.979-5.047-8.916-1.064-1.938-.357-4.369 1.578-5.434 1.941-1.061 4.373-.354 5.434 1.578 1.592 2.896 3.32 5.91 4.973 8.791 2.443 4.256 4.752 8.277 6.225 11.24.473.951.547 2.049.211 3.055-4.294 12.79-16.509 15.587-26.372 15.587z"/></g></g></svg>