<svg id="baby-scan" enable-background="new 0 0 300 300" height="512" viewBox="0 0 300 300" width="512" xmlns="http://www.w3.org/2000/svg"><g><circle cx="168" cy="118" fill="#f9d7f7" r="90"/><g><path d="m207.117 268h-138.234c-12.638 0-22.883-10.245-22.883-22.883v-130.234c0-12.638 10.245-22.883 22.883-22.883h138.235c12.637 0 22.882 10.245 22.882 22.883v130.235c0 12.637-10.245 22.882-22.883 22.882z" fill="#6b4f5b"/><path d="m207.117 272h-138.234c-14.824 0-26.883-12.059-26.883-26.883v-130.234c0-14.824 12.059-26.883 26.883-26.883h138.234c14.824 0 26.883 12.059 26.883 26.883v130.234c0 14.824-12.059 26.883-26.883 26.883zm-138.234-176c-10.412 0-18.883 8.471-18.883 18.883v130.234c0 10.412 8.471 18.883 18.883 18.883h138.234c10.412 0 18.883-8.471 18.883-18.883v-130.234c0-10.412-8.471-18.883-18.883-18.883z" fill="#4c241d"/></g><path d="m97.55 193.97s-8.77 27.737 5.241 41.32 50.661 3.814 68.843-10.269c27.694-21.45 22.353-41.749 22.353-41.749s-31.328-15.596-45.456-12.139c-14.129 3.457-33.593 15.706-33.593 15.706s1.503-18.337-8.041-14.504-18.432 6.095-18.432 6.095-11.727-13.475-16.112 2.465 4.845 23.944 13.795 23.361 13.534-.207 13.534-.207" fill="#ffded5"/><g fill="#4c241d"><path d="m123.139 245.836c-9.229 0-17.52-2.232-23.131-7.672-15.607-15.133-6.66-44.17-6.271-45.4.666-2.102 2.914-3.271 5.016-2.605 2.105.662 3.275 2.908 2.613 5.014-.08.256-7.842 25.562 4.211 37.248 11.428 11.08 45.525 3.443 63.609-10.561 24.996-19.359 21.104-36.869 20.924-37.605-.514-2.133.777-4.303 2.904-4.838 2.121-.531 4.283.717 4.844 2.84.244.934 5.676 23.121-23.773 45.928-12.257 9.493-33.31 17.649-50.946 17.651z"/><path d="m152.77 211.451c-10.656 0-24.355-1.348-31.367-7.498-3.115-2.732-4.795-6.287-4.857-10.277-.32-20.668 28.596-28.115 29.828-28.422 2.141-.545 4.312.768 4.848 2.914.535 2.143-.77 4.314-2.914 4.848-6.672 1.664-23.947 8.596-23.762 20.535.027 1.74.703 3.135 2.131 4.387 7.719 6.775 31.219 5.754 39.615 4.785 2.227-.25 4.18 1.322 4.432 3.516.254 2.195-1.318 4.178-3.514 4.432-1.394.161-7.218.78-14.44.78z"/><path d="m86.844 208.182c-5.875 0-13.576-1.031-17.992-5.76-2.197-2.354-4.479-6.613-2.861-13.533 2.863-12.262 6.102-17.871 11.18-19.363 5.348-1.568 10.332 2.4 14.08 6.035 1.586 1.537 1.625 4.07.086 5.656-1.537 1.588-4.07 1.623-5.656.086-4.641-4.5-6.201-4.123-6.254-4.102-.447.131-2.818 1.398-5.646 13.508-.984 4.213.449 5.748.92 6.252 3.533 3.789 14.111 3.475 18.674 2.738 2.17-.361 4.234 1.125 4.588 3.307.355 2.18-1.125 4.234-3.307 4.588-.75.123-3.869.588-7.812.588z"/><path d="m116.23 216.082c-.582 0-1.172-.127-1.73-.395-1.992-.957-2.83-3.348-1.873-5.338 2.93-6.096 3.148-24.861-1.795-32.588-1.699-2.66-3.293-2.891-4.379-2.93-9.24.143-16.971 11.953-19.17 16.492-.961 1.984-3.357 2.814-5.338 1.861-1.988-.959-2.824-3.344-1.869-5.332.408-.848 10.168-20.771 26.252-21.021 3.219.049 7.686 1.061 11.242 6.617 6.711 10.488 6.166 32.254 2.268 40.365-.69 1.435-2.119 2.269-3.608 2.269z"/><path d="m148.074 192.584c-1.447 0-2.844-.787-3.555-2.16-1.016-1.959-.254-4.369 1.705-5.387.355-.186 8.811-4.531 18.076-5.24 2.203-.16 4.125 1.48 4.293 3.684s-1.48 4.125-3.684 4.293c-7.598.582-14.93 4.326-15.002 4.365-.587.302-1.214.445-1.833.445z"/></g><g><path d="m190.091 185.604c13.696-5.772 23.508-21.027 23.508-36.382 0-19.48-15.792-35.272-35.272-35.272-4.541 0-8.602.654-12.208 1.843-10.386 3.425-16.505 13.682-16.411 24.618.038 4.416-1.444 8.869-6.613 11.183-.005.007-.009.013-.014.019-.63 13.559 10.162 26.641 21.137 32.881" fill="#ffded5"/><path d="m190.094 189.605c-1.561 0-3.043-.92-3.688-2.449-.859-2.035.096-4.381 2.133-5.238 12.203-5.143 21.061-18.895 21.061-32.697 0-17.242-14.029-31.271-31.273-31.271-3.965 0-7.65.553-10.953 1.643-8.258 2.723-13.75 11.074-13.666 20.783.053 5.965-2.275 10.693-6.617 13.574.635 11.01 9.797 21.775 19.105 27.068 1.92 1.092 2.592 3.533 1.5 5.453-1.09 1.922-3.529 2.596-5.453 1.5-11.664-6.629-23.885-20.895-23.156-36.543.027-.559.168-1.104.418-1.604.193-.385.459-.754.764-1.059.344-.346.748-.623 1.193-.822 1.844-.826 4.291-2.502 4.246-7.498-.113-13.203 7.586-24.637 19.16-28.451 4.111-1.357 8.641-2.045 13.459-2.045 21.656 0 39.273 17.617 39.273 39.271 0 16.879-10.916 33.73-25.955 40.068-.506.216-1.034.317-1.551.317zm-46.998-38.011h.039z" fill="#4c241d"/></g><g fill="#4c241d"><circle cx="161.334" cy="149.57" r="4"/><circle cx="212.96" cy="39.948" r="4.276"/><circle cx="108.96" cy="59.948" r="4.276"/><path d="m156 72c-7.719 0-14-6.281-14-14s6.281-14 14-14 14 6.281 14 14-6.281 14-14 14zm0-20c-3.309 0-6 2.691-6 6s2.691 6 6 6 6-2.691 6-6-2.691-6-6-6z"/></g><circle cx="206" cy="248" fill="#a9ba5a" r="8"/><circle cx="182" cy="248" fill="#e66353" r="8"/><path d="m130 112h-64c-2.209 0-4-1.791-4-4s1.791-4 4-4h64c2.209 0 4 1.791 4 4s-1.791 4-4 4z" fill="#fff"/><path d="m114 124h-8c-2.209 0-4-1.791-4-4s1.791-4 4-4h8c2.209 0 4 1.791 4 4s-1.791 4-4 4z" fill="#fff"/><path d="m94 124h-28c-2.209 0-4-1.791-4-4s1.791-4 4-4h28c2.209 0 4 1.791 4 4s-1.791 4-4 4z" fill="#fff"/></g></svg>
