<svg id="baby-carriage" enable-background="new 0 0 300 300" height="512" viewBox="0 0 300 300" width="512" xmlns="http://www.w3.org/2000/svg"><g><circle cx="145" cy="122" fill="#f9d7f7" r="86"/><g fill="#4c241d"><circle cx="231" cy="196" r="4"/><path d="m232.656 57.656c-1.023 0-2.047-.391-2.828-1.172l-11.312-11.312c-1.562-1.562-1.562-4.094 0-5.656s4.094-1.562 5.656 0l11.312 11.312c1.562 1.562 1.562 4.094 0 5.656-.781.782-1.804 1.172-2.828 1.172z"/><path d="m221.344 57.656c-1.023 0-2.047-.391-2.828-1.172-1.562-1.562-1.562-4.094 0-5.656l11.312-11.312c1.562-1.562 4.094-1.562 5.656 0s1.562 4.094 0 5.656l-11.312 11.312c-.781.782-1.805 1.172-2.828 1.172z"/></g><g><path d="m115 120v-68h-32c-22.091 0-40 17.909-40 40v56c0 22.091 17.909 40 40 40h48 52c22.091 0 40-17.909 40-40v-28z" fill="#c1dbdc"/><path d="m183 192h-100c-24.262 0-44-19.738-44-44v-56c0-24.262 19.738-44 44-44h32c2.211 0 4 1.791 4 4v64h104c2.211 0 4 1.791 4 4v28c0 24.262-19.738 44-44 44zm-100-136c-19.852 0-36 16.15-36 36v56c0 19.85 16.148 36 36 36h100c19.852 0 36-16.15 36-36v-24h-104c-2.211 0-4-1.791-4-4v-64z" fill="#4c241d"/></g><g><circle cx="115" cy="120" fill="#ffce56" r="12"/><path d="m115 136c-8.824 0-16-7.178-16-16s7.176-16 16-16 16 7.178 16 16-7.176 16-16 16zm0-24c-4.41 0-8 3.588-8 8s3.59 8 8 8 8-3.588 8-8-3.59-8-8-8z" fill="#4c241d"/></g><g><path d="m175 248h-88c-8.837 0-16-7.163-16-16h120c0 8.837-7.163 16-16 16z" fill="#c1dbdc"/><path d="m175 252h-88c-11.027 0-20-8.973-20-20 0-2.209 1.789-4 4-4h120c2.211 0 4 1.791 4 4 0 11.027-8.973 20-20 20zm-99.316-16c1.652 4.656 6.102 8 11.316 8h88c5.215 0 9.664-3.344 11.316-8z" fill="#4c241d"/></g><path d="m103 124h-32c-2.211 0-4-1.791-4-4s1.789-4 4-4h32c2.211 0 4 1.791 4 4s-1.789 4-4 4z" fill="#4c241d"/><g><path d="m59.004 234c-1.715 0-3.418-.73-4.605-2.148-2.125-2.541-1.789-6.324.75-8.451l172-144c1.078-.904 2.441-1.4 3.852-1.4h28c3.312 0 6 2.686 6 6s-2.688 6-6 6h-25.82l-170.329 142.599c-1.125.941-2.489 1.4-3.848 1.4z" fill="#f96e43"/><path d="m59.004 238c-2.969 0-5.766-1.305-7.672-3.58-3.535-4.229-2.977-10.547 1.246-14.086l172.004-144c1.793-1.504 4.074-2.334 6.418-2.334h28c5.516 0 10 4.486 10 10s-4.484 10-10 10h-24.367l-169.215 141.666c-1.797 1.506-4.074 2.334-6.414 2.334zm171.996-156c-.469 0-.922.166-1.281.465l-172.004 144.002c-.844.709-.957 1.973-.246 2.818.59.703 1.52 1.338 2.816.246l170.328-142.597c.719-.604 1.629-.934 2.567-.934h25.82c1.102 0 2-.896 2-2s-.898-2-2-2z" fill="#4c241d"/></g><g><circle cx="55" cy="240" fill="#bd53b5" r="20"/><path d="m55 264c-13.234 0-24-10.766-24-24s10.766-24 24-24 24 10.766 24 24-10.766 24-24 24zm0-40c-8.824 0-16 7.178-16 16s7.176 16 16 16 16-7.178 16-16-7.176-16-16-16z" fill="#4c241d"/></g><g><circle cx="55" cy="240" fill="#6b4f5b" r="8"/><path d="m55 252c-6.617 0-12-5.383-12-12s5.383-12 12-12 12 5.383 12 12-5.383 12-12 12zm0-16c-2.207 0-4 1.795-4 4s1.793 4 4 4 4-1.795 4-4-1.793-4-4-4z" fill="#4c241d"/></g><g><path d="m203 234c-1.598 0-3.195-.637-4.379-1.896l-60-64c-2.266-2.418-2.141-6.215.273-8.48 2.418-2.264 6.207-2.146 8.484.273l60 64c2.266 2.418 2.141 6.215-.273 8.48-1.16 1.086-2.632 1.623-4.105 1.623z" fill="#f96e43"/><path d="m203 238c-2.75 0-5.41-1.15-7.293-3.158l-60.004-64.002c-3.77-4.021-3.566-10.361.453-14.133 4.02-3.766 10.355-3.559 14.137.447l60.004 64.006c3.77 4.021 3.566 10.361-.453 14.133-1.867 1.748-4.297 2.707-6.844 2.707zm-60-75.996c-.492 0-.984.178-1.371.539-.801.752-.844 2.021-.09 2.826l60 63.998c.516.551 1.137.633 1.461.633.359 0 .891-.094 1.371-.543.801-.752.844-2.021.09-2.826l-60-63.998c-.395-.418-.926-.629-1.461-.629z" fill="#4c241d"/></g><g><circle cx="207" cy="240" fill="#bd53b5" r="20"/><path d="m207 264c-13.234 0-24-10.766-24-24s10.766-24 24-24 24 10.766 24 24-10.766 24-24 24zm0-40c-8.824 0-16 7.178-16 16s7.176 16 16 16 16-7.178 16-16-7.176-16-16-16z" fill="#4c241d"/></g><g><circle cx="207" cy="240" fill="#6b4f5b" r="8"/><path d="m207 252c-6.617 0-12-5.383-12-12s5.383-12 12-12 12 5.383 12 12-5.383 12-12 12zm0-16c-2.207 0-4 1.795-4 4s1.793 4 4 4 4-1.795 4-4-1.793-4-4-4z" fill="#4c241d"/></g><g fill="#4c241d"><path d="m159 96c-2.211 0-4-1.791-4-4v-12c0-2.209 1.789-4 4-4s4 1.791 4 4v12c0 2.209-1.789 4-4 4z"/><path d="m175 100c-1.023 0-2.047-.391-2.828-1.172-1.562-1.562-1.562-4.094 0-5.656l8-8c1.562-1.562 4.094-1.562 5.656 0s1.562 4.094 0 5.656l-8 8c-.781.781-1.805 1.172-2.828 1.172z"/><path d="m143 100c-1.023 0-2.047-.391-2.828-1.172l-8-8c-1.562-1.562-1.562-4.094 0-5.656s4.094-1.562 5.656 0l8 8c1.562 1.562 1.562 4.094 0 5.656-.781.781-1.805 1.172-2.828 1.172z"/><path d="m105.492 114.49c-1.023 0-2.047-.391-2.828-1.172l-20.492-20.49c-1.562-1.562-1.562-4.094 0-5.656s4.094-1.562 5.656 0l20.492 20.49c1.562 1.562 1.562 4.094 0 5.656-.781.782-1.804 1.172-2.828 1.172z"/></g></g></svg>